<svg width="101" height="71" viewBox="0 0 101 71" fill="none" xmlns="http://www.w3.org/2000/svg">
<path d="M100.409 0H0V70.1887H100.409V0Z" fill="black"/>
<path d="M26.7559 47.049V48.0453C26.7559 49.2679 26.3024 50.083 25.4603 50.6717C24.2943 51.4868 22.0917 52.0755 17.7515 52.0755C12.8282 52.0755 10.7553 51.3509 9.58922 50.4453C8.55275 49.7207 7.96973 48.7245 7.96973 47.4113C7.96973 46.1887 8.55275 45.0566 9.58922 44.3773C10.7553 43.5622 13.0873 42.7471 17.7515 42.7471C21.5087 42.7471 24.4238 43.2453 25.9138 43.7434V45.5547C24.1647 44.8302 21.2496 44.332 17.7515 44.332C14.2534 44.332 12.5043 44.7396 11.6622 45.3283C11.0792 45.8264 10.6257 46.4604 10.6257 47.366C10.6257 48.3623 11.0792 48.9962 11.6622 49.4038C12.5043 49.9925 13.9943 50.4 17.7515 50.4C20.6666 50.4 22.5452 49.9924 23.2578 49.4943C23.7112 49.1773 23.8408 48.7698 23.8408 48.3622H16.2616V46.7321H26.6911V47.049H26.7559Z" fill="white"/>
<path d="M42.3017 50.0832C42.5608 49.902 42.5608 49.6756 42.5608 49.4945C42.5608 49.1775 42.4313 48.9964 42.3017 48.9058C41.8482 48.5888 41.1357 48.4982 36.7954 48.4077C31.8721 48.2265 30.3822 47.9096 29.5401 47.2756C29.0866 46.8681 28.8275 46.4605 28.8275 45.736C28.8275 45.1473 28.957 44.5134 29.6696 44.0152C30.5118 43.4266 32.2608 43.019 36.4715 43.019C39.9696 43.019 42.4313 43.336 44.1803 43.8341V45.4643C42.3017 44.8756 39.257 44.4681 36.4715 44.4681C33.103 44.4681 32.1313 44.6492 31.6778 44.9662C31.5482 45.1473 31.4187 45.2832 31.4187 45.5549C31.4187 45.736 31.5482 45.9624 31.6778 46.053C32.1313 46.37 32.8438 46.4605 36.925 46.5511C42.1721 46.7322 43.5973 47.0492 44.3099 47.6832C44.7633 48.0907 45.0225 48.5888 45.0225 49.2228C45.0225 49.9473 44.8929 50.536 44.1803 50.9435C43.3382 51.5322 41.5891 52.0756 36.925 52.0756C33.4269 52.0756 30.1231 51.6681 28.1797 51.0794V49.5398C30.0583 50.1284 33.8155 50.6718 36.925 50.6718C40.6822 50.5813 41.8482 50.4001 42.3017 50.0832Z" fill="white"/>
<path d="M69.1866 51.8944H66.725V44.4679L60.0527 51.8944H56.6841L50.1413 44.4679V51.8944H47.6797V43.0641H51.7608L58.4332 50.6717L65.1055 43.0641H69.1866V51.8944Z" fill="white"/>
<path d="M77.0252 48.2264H84.6044L80.8472 44.0604L77.0252 48.2264ZM82.7258 42.9736L91.0176 51.8943H87.973L86.0943 49.766H75.6648L73.7862 51.8943H70.8711L79.1629 42.9736H82.7258Z" fill="white"/>
<path d="M88.0394 43.3811H87.1973V42.9736H89.3998V43.3811H88.4929V45.0113H88.0394V43.3811Z" fill="white"/>
<path d="M89.7871 42.9736H90.3701L91.1475 43.9698L91.9896 42.9736H92.4431V45.0113H91.9896V43.5623L91.1475 44.4679L90.2406 43.5623V45.0113H89.7871V42.9736Z" fill="white"/>
<path d="M17.1688 31.2H8.29395V38.4905H17.1688V31.2Z" fill="#811000"/>
<path d="M33.7512 27.5321H20.5361V38.4906H33.7512V27.5321Z" fill="#AE0F0A"/>
<path d="M57.1365 22.0529H37.249V38.4907H57.1365V22.0529Z" fill="#D20A11"/>
<path d="M90.2414 13.8114H60.7666V38.4906H90.2414V13.8114Z" fill="#E30613"/>
</svg>
