<svg width="91" height="103" viewBox="0 0 91 103" fill="none" xmlns="http://www.w3.org/2000/svg">
<path d="M51.4851 5.14866L51.2936 5.00423L51.0701 5.03311L51.134 5.17755L51.2297 5.20644L51.3255 5.23532L51.3893 5.2931H51.4851V5.14866ZM45.4844 6.593L45.5482 6.56411C45.7397 6.593 45.9632 6.593 46.1547 6.53523L46.4419 6.593L46.6654 6.76632C46.7611 6.85298 46.8569 6.93964 47.0165 6.91075L47.1761 6.85298H47.3357L47.4953 7.08407C47.5591 7.14184 47.6229 7.2285 47.7187 7.2285L48.0379 7.25739H48.1336H48.2294L48.4209 7.28628L48.4528 7.14184L48.2932 6.99741L48.1017 6.88187L47.9421 6.73743L47.8464 6.56411L47.8783 6.47745L47.9421 6.3619L47.8464 6.24636L47.7825 6.21747L47.7506 6.13081L47.6549 6.04415L47.6229 5.9286L47.6549 5.89972L47.6868 5.95749L47.7506 5.98638L47.8144 6.04415L47.9102 6.07304L48.0698 6.10193L48.2294 6.18858C48.3251 6.24636 48.4209 6.30413 48.5486 6.27524C48.7401 6.24636 48.9316 6.18859 49.0912 6.10193L49.4742 6.01526C50.2083 5.7264 49.8572 6.13081 50.7829 5.87083L50.9105 5.81306V5.75528L50.9425 5.69751L51.0063 5.75528L51.3255 5.7264L51.5808 5.66863L51.4851 5.52419L51.4212 5.46641L51.3893 5.37976L51.2616 5.32198L51.1659 5.23532L50.8467 5.17755L50.6552 5.062L50.4317 5.03311L50.2083 4.97534L49.9849 5.00423L49.7934 5.03311L49.6338 5.09089L49.5061 5.17755C49.2827 5.29309 48.9954 5.32198 48.7401 5.35087C48.5805 5.37976 48.4209 5.46641 48.3251 5.61085H48.1655L48.0698 5.58196H47.974L47.8144 5.69751L47.7187 5.84194L47.6868 5.78417V5.7264L47.5272 5.63974L47.3676 5.61085C47.2399 5.58196 47.1122 5.63974 46.9845 5.69751L46.793 5.75528L46.6015 5.78417C46.5058 5.81306 46.3781 5.84195 46.3462 5.95749L46.2823 5.98638H46.2185L46.0908 6.01526L46.027 6.04415L45.8355 6.1597L45.644 6.21747L45.4844 6.593Z" fill="#231F20"/>
<path d="M48.2929 3.44432L48.2289 3.53098L48.1648 3.5021L48.1328 3.44432L48.1968 3.35767" fill="#231F20"/>
<path d="M50.7819 4.05096L50.6862 4.19539C50.5266 4.28205 50.3031 4.22428 50.1755 4.10873L50.1436 4.02208V3.93542C50.2712 3.81988 50.4627 3.84877 50.6223 3.90654L50.7819 4.05096Z" fill="#231F20"/>
<path d="M52.4095 4.68646V4.77312L52.3776 4.83089L52.1542 4.94644L51.8669 4.88867L51.7712 4.80201L51.7393 4.74423L51.8669 4.62868L52.0584 4.54202L52.2499 4.5998" fill="#231F20"/>
<path d="M60.4214 9.16392L60.6129 9.27947L60.7725 9.4239L60.8363 9.53945L60.9321 9.65499L60.9959 9.82831V10.0016L60.964 10.0883V10.175L60.8682 10.3194C60.7406 10.3772 60.6448 10.3483 60.549 10.2905L60.2937 10.0883L60.1341 9.91497L59.9426 9.79943L59.6872 9.74165L59.4638 9.59722H59.4319C59.3361 9.51056 59.2723 9.39502 59.3042 9.27947L59.368 9.16392L59.4957 9.07726L59.6553 9.10615L59.7192 9.13503H59.783L59.8787 9.01949L60.1341 9.04837L60.4214 9.16392Z" fill="#231F20"/>
<path d="M49.9846 9.82831L50.0484 9.94386L50.0803 10.0594L49.8888 10.0883L49.7611 10.0305L49.6973 9.79942L49.8888 9.77054L49.9526 9.79942" fill="#231F20"/>
<path d="M50.8789 9.97271L51.1024 10.1171L51.1981 10.2038L51.3258 10.2616C51.4216 10.3482 51.4854 10.4638 51.4535 10.5793L51.262 10.6371H51.0704L50.8151 10.4638C50.7512 10.3771 50.6236 10.3194 50.4959 10.2616L50.464 10.2327V10.1749L50.4001 10.0594L50.3044 9.94382L50.2725 9.88605L50.3044 9.82828H50.4959L50.6555 9.91494" fill="#231F20"/>
<path d="M49.3775 10.1461L49.569 10.2617L49.6966 10.435V10.4928L49.6328 10.5505L49.4413 10.4639L49.3775 10.3772L49.2817 10.3194L49.1221 10.2039L49.0264 10.0595L49.1221 10.0017L49.2817 10.0595" fill="#231F20"/>
<path d="M49.8881 10.7815L49.8561 10.8678L49.7285 10.839V10.7527L49.8881 10.7815Z" fill="#231F20"/>
<path d="M41.9084 10.926V11.0704L41.8446 11.186L41.5573 11.1282L41.5254 10.8682L41.6211 10.8393L41.7488 10.8682L41.9084 10.926Z" fill="#231F20"/>
<path d="M41.398 10.926L41.3022 11.0993L41.1426 10.9838L41.2383 10.8682L41.398 10.926Z" fill="#231F20"/>
<path d="M50.176 11.0705L50.2717 11.186L50.3037 11.3304L50.2079 11.3882L50.1121 11.446L49.8568 11.3016L49.793 11.186L49.8249 11.0416L49.8568 10.9549L49.9526 10.926L50.176 11.0705Z" fill="#231F20"/>
<path d="M42.4192 11.186V11.2727L42.3553 11.3304H42.0361L42.1638 11.0416L42.2596 11.0705L42.3553 11.1282" fill="#231F20"/>
<path d="M51.2289 12.1681H51.1651L51.0693 12.1104V12.0815L51.1332 12.0237H51.2608V12.0815" fill="#231F20"/>
<path d="M51.6438 12.3703V12.4281V12.4859L51.7076 12.5725L51.6757 12.6303L51.6118 12.6592L51.3565 12.6014C51.2927 12.5437 51.2607 12.457 51.2607 12.3414L51.3565 12.2837L51.4522 12.3414L51.6438 12.3703Z" fill="#231F20"/>
<path d="M52.3466 12.7459V12.9192L52.2827 12.9481L52.0273 12.717L52.0593 12.6303L52.2189 12.6592" fill="#231F20"/>
<path d="M51.9315 12.9192L52.0273 12.9481L52.1231 13.0058L52.155 13.0636V13.1214L51.9315 13.2658C51.7719 13.2369 51.6123 13.1792 51.5485 13.0058L51.5166 12.9192V12.8614L51.6762 12.7747H51.8039L51.8358 12.8614" fill="#231F20"/>
<path d="M33.8332 12.8903V13.0058L33.8013 13.0636V13.1214H33.4821L33.4502 13.0058L33.6736 12.8325L33.7694 12.8614" fill="#231F20"/>
<path d="M52.6331 13.3525L52.6012 13.5258L52.5054 13.6413C52.3777 13.6413 52.2501 13.5836 52.1543 13.468L52.25 13.2658L52.3458 13.208H52.4416L52.6331 13.3525Z" fill="#231F20"/>
<path d="M53.0802 13.468V13.5258L53.144 13.5836L53.176 13.6125L53.0483 13.7858H52.9206L52.8249 13.6991L52.793 13.5547V13.3814L52.8887 13.3525L53.0802 13.468Z" fill="#231F20"/>
<path d="M53.6223 13.8435L53.6861 13.9591L53.7819 14.0746V14.1902L53.7181 14.2768L53.6223 14.3057H53.4946L53.3989 14.2768L53.335 14.1902L53.2712 14.1035V14.0169L53.2393 13.9302V13.8435L53.3031 13.6991L53.4946 13.728L53.6223 13.8435Z" fill="#231F20"/>
<path d="M45.6109 9.82828L45.7705 9.91494L45.9939 9.94382L46.0896 10.0016L46.1535 10.0883L46.1854 10.1749L45.9939 10.3482L45.7386 10.3771L45.579 10.5216L45.2598 10.1171" fill="#231F20"/>
<path d="M63.1021 13.3814L63.0383 13.4392C62.8787 13.5547 62.6872 13.6125 62.4638 13.6125L62.4957 13.4969L62.6234 13.4103L62.8149 13.3525L63.0064 13.3236L63.0702 13.3525L63.1021 13.3814ZM60.5167 18.2055L60.1656 18.2344V18.321L60.2295 18.3788L60.5487 18.321L60.5167 18.2055ZM62.1446 19.4765L61.8573 19.2454H61.7616L61.6658 19.2743L61.57 19.4187C61.602 19.5054 61.6339 19.6209 61.6977 19.7076L61.9211 19.9387L62.0169 19.9676L62.0807 20.0542L62.2403 20.1409L62.3999 20.1698L62.4319 20.112L62.4638 20.0253L62.4319 19.9387L62.3361 19.852L62.2403 19.6787L62.1446 19.4765ZM55.8566 10.5505L55.8247 10.7238L55.7609 10.7816L55.729 10.8682L55.6651 10.8971H55.6013L55.4736 11.0704L55.5055 11.186L55.6013 11.2726H55.697L55.7609 11.1282L55.8247 11.2438L56.1439 11.446C56.2077 11.5904 56.3673 11.6771 56.5269 11.7348L56.6227 11.8504L56.6865 11.9659L56.7504 12.0815L56.8461 12.1681L56.9738 12.6303L57.0057 12.8614L57.0696 13.0636L57.2291 13.2081L57.4207 13.2947L57.5164 13.3525L57.5802 13.4392L57.6122 13.5258V13.6125C57.6122 13.728 57.6122 13.8725 57.5802 13.988L57.5164 14.1035V14.248L57.5802 14.3924L57.6441 14.5368C57.7718 14.5657 57.8356 14.6524 57.8356 14.7679V14.8257L57.8675 14.8835V15.1435L57.9633 15.3746L58.0271 15.4612L58.1229 15.4901L58.4101 15.4323L58.6974 15.3168L58.8251 15.2012L59.1123 15.0857C59.2081 15.0568 59.3358 15.0279 59.4315 15.0857L59.5592 15.1724L59.6549 15.2879C59.9103 15.4612 60.1337 15.6634 60.1656 15.9234L60.2295 16.1256L60.3572 17.3677L60.5806 17.5122L60.7082 17.7433L60.804 17.8299L60.9317 17.8588L61.1551 17.9744L61.219 18.0899L60.9955 18.1188V18.1766C61.0913 18.2632 61.2189 18.321 61.3466 18.3499L61.4743 18.2632L61.4424 18.2055L61.3785 18.1477L61.2828 18.1188L61.3785 18.0899H61.6658L61.9531 18.1188C62.0488 18.1766 62.0488 18.2921 62.0807 18.4077C62.0807 18.5232 62.1127 18.6099 62.2084 18.6965L62.4319 18.9565L62.6872 19.1298L63.0064 19.2454L63.2298 19.3609L63.4213 19.5343L63.6128 19.6498L63.7724 19.7942L63.8682 19.852L63.9639 19.8809L64.0597 19.9098L64.1554 19.8809H64.347L64.5385 19.9964L64.73 20.1409L64.8257 20.2564L64.9534 20.372L64.9853 20.4297L65.0492 20.4586L65.2726 20.6897L65.496 20.9497L65.5599 21.0652L65.6556 21.1519L65.8152 21.3252L66.0067 21.4985L66.1025 21.5852L66.1982 21.6719V21.8452L66.294 21.9896L66.5493 22.0185L66.8366 21.9896L66.9962 21.903L67.1558 21.8163C67.2835 21.8163 67.3792 21.7585 67.475 21.7008L68.3687 20.8919L68.4644 20.8342L68.5602 20.7764C68.656 20.6897 68.6879 20.6031 68.6879 20.4586C68.7198 20.2564 68.624 20.112 68.4964 19.9676L68.4325 19.852C68.1133 19.2454 67.1239 18.1766 66.677 17.5122L66.5174 17.31C66.3578 17.2522 66.1663 17.1655 66.0705 17.0211L65.9748 16.9344L65.879 16.8189C65.7194 16.7322 65.5599 16.6167 65.4641 16.5011C65.4003 16.2989 65.2407 16.0967 65.0811 15.9234L64.8576 15.779L64.6342 15.6345L64.347 15.4323L64.0597 15.2301L63.8043 14.8835C63.7086 14.7679 63.6128 14.6524 63.4852 14.5657L63.2617 13.2658H63.1979L63.1341 13.0925L62.9745 12.9481L62.8149 12.8325L62.5914 12.8036L62.3999 12.6592L62.3361 12.5726L62.3042 12.457L62.2723 12.2548L62.2084 12.0526L62.1765 11.937L62.1446 11.8215L61.7935 11.5615C61.6977 11.4749 61.602 11.3593 61.5381 11.2438L61.3466 11.0704L61.187 10.8682C60.9955 10.7527 60.804 10.6371 60.5806 10.5794C60.4529 10.5794 60.3252 10.5216 60.2295 10.4349L60.038 10.2616L59.8784 10.0305C59.7507 9.91497 59.5911 9.8572 59.4315 9.91497L59.1762 9.94386L58.9527 9.8572L58.6974 9.68388C58.5378 9.62611 58.3782 9.62611 58.1867 9.68388L57.9952 9.74165L57.8037 9.77054C57.676 9.79943 57.5483 9.79942 57.4207 9.88608L57.3568 9.91497H57.293L57.1653 9.97275L57.1015 10.0305L55.8566 10.5505Z" fill="#231F20"/>
<path d="M39.3552 18.321L39.4191 18.2921L39.5148 18.2633H39.6106L39.7063 18.2921L39.7702 18.3499L39.7063 18.4655L39.4191 18.4943L39.3871 18.4655L39.3552 18.4366L39.2595 18.4943L39.1956 18.5521L39.036 18.581H38.8764L38.7168 18.5521L38.653 18.4943L38.6211 18.4077L38.7488 18.2344L38.9084 18.1188C39.036 18.0899 39.1637 18.1188 39.2595 18.2055L39.3552 18.321Z" fill="#231F20"/>
<path d="M55.762 23.3473L55.7939 23.2895L55.8577 23.2606L55.8897 23.1451L55.762 23.0873L55.6343 23.0584L55.4109 22.9428L55.2832 23.2606" fill="#231F20"/>
<path d="M62.752 19.9964H62.6875V20.0553H62.752V19.9964Z" fill="#231F20"/>
<path d="M62.9745 20.1409L63.0064 20.2853L62.9106 20.3431H62.7829L62.7191 20.3142L62.6553 20.2564L62.6872 20.1986L62.751 20.112L62.9745 20.1409Z" fill="#231F20"/>
<path d="M63.0075 20.7764L63.1032 20.8631L63.1671 20.8342H63.2309L63.2947 20.8919L63.3586 20.9497L63.3905 21.2097L63.2628 21.2386L63.199 21.1519V21.0653L63.1352 20.8919L63.0394 20.9497L63.0713 21.0075L63.1352 21.0653L63.1671 21.1808L63.199 21.2964L63.0713 21.3253L62.9436 21.2964L62.784 21.123L62.8479 21.0075L62.9436 20.9786L62.8479 20.9208L62.7521 20.8631C62.6244 20.8342 62.5287 20.7475 62.4648 20.6609V20.5742L62.4968 20.4875L62.784 20.4586" fill="#231F20"/>
<path d="M59.5917 20.7186V20.8342L59.4321 20.8919L59.3363 20.863L59.2725 20.8053L59.3044 20.7186L59.4002 20.6608L59.5917 20.7186Z" fill="#231F20"/>
<path d="M60.0393 20.9786L60.0073 21.123L59.9116 21.1519L59.8477 21.123L59.752 21.0075L59.9116 20.8919L59.9754 20.9208" fill="#231F20"/>
<path d="M58.7942 21.8163L58.7623 21.7874H58.6985L58.6665 21.8452C58.5389 21.8741 58.4112 21.9607 58.3154 22.0474V22.1052V22.1629L58.3793 22.2207L58.4431 22.2496C58.5708 22.3363 58.6027 22.2785 58.6665 22.1918L58.7304 22.0763L58.8261 21.9896L58.89 22.0185V22.1629L58.9219 22.3074H58.9857L59.0496 22.2496L59.2092 22.2207L59.273 22.1341V22.0185L59.1134 21.8741H58.89L58.7942 21.8163ZM59.5922 21.123H59.1453L58.9857 21.2097L58.8261 21.3252L58.6985 21.4697L58.6665 21.5563L58.7304 21.643L58.9219 21.7296L59.1134 21.8163L59.273 21.9318L59.3687 22.1052V22.1918L59.4326 22.2496C59.5922 22.3074 59.7837 22.3074 59.8795 22.1918L59.8475 21.9896L59.6879 21.7874L59.7199 21.643L59.7518 21.4985C59.8156 21.3541 59.7199 21.2386 59.5922 21.123Z" fill="#231F20"/>
<path d="M63.4862 21.4986L63.6139 21.643L63.6777 21.8163L63.7415 21.9896L63.6139 22.1052L63.4543 22.1341L63.3266 22.0763L63.2308 21.9896L63.1989 21.9319L63.167 21.8452L63.1989 21.7008L63.167 21.5852L63.2627 21.4697H63.3904" fill="#231F20"/>
<path d="M60.4224 22.2496L60.4862 22.3073V22.3651L60.2308 22.394L60.167 22.2785L60.2308 22.1918L60.4224 22.2496Z" fill="#231F20"/>
<path d="M63.9638 22.3651L63.9318 22.4229L63.8361 22.4807L63.7084 22.5096H63.6127L63.5488 22.4518L63.5807 22.394L63.7084 22.2785L63.868 22.2496" fill="#231F20"/>
<path d="M58.6339 22.394L58.5701 22.3651L58.4744 22.4229L58.4105 22.5673L58.3786 22.7118L58.4105 22.914L58.3786 23.0873L58.0275 23.1739C57.8998 23.2028 57.8041 23.2606 57.7402 23.3761V23.5784L57.836 23.7517L57.9317 23.8095L58.0594 23.8383L58.1552 23.7806L58.2509 23.6939L58.3148 23.7228L58.3786 23.7806L58.5701 23.8095L58.7616 23.7517L58.9212 23.7806L59.0808 23.7517V23.6939H59.017L58.8893 23.6361L58.7935 23.5495V23.4628L58.8574 23.405L59.017 23.4339L59.1766 23.405L59.3043 23.3184L59.3362 23.2028V22.9717L59.1766 22.9428H59.017L58.9212 22.8851L58.8893 22.7984L58.7935 22.7695L58.7297 22.7118L58.6339 22.5384V22.394ZM59.4319 22.3073L59.3043 22.2785L59.017 22.5384L58.9212 22.5962L58.8574 22.654V22.7406L58.9212 22.8273L59.0489 22.7984L59.1766 22.7695L59.3043 22.654L59.4319 22.5095L59.4638 22.394L59.4319 22.3073Z" fill="#231F20"/>
<path d="M60.772 22.3362L60.7401 22.4229H60.6443L60.5166 22.3362L60.5805 22.3073L60.6443 22.2785L60.772 22.3362Z" fill="#231F20"/>
<path d="M64.1243 22.7117L64.0604 22.7695L63.9328 22.8562H63.8051L63.6774 22.7984L63.6455 22.7406L63.6774 22.6251H63.7413H63.8051L63.9647 22.5962L64.1243 22.7117Z" fill="#231F20"/>
<path d="M64.2198 23.0873L64.2517 23.2317C64.4751 23.7517 64.7624 24.7916 64.8262 25.3405V25.4849L64.6666 25.5716L64.5071 25.6004L64.4113 25.5138L64.3475 25.3982L64.2198 25.196L64.1879 25.0516L64.2198 24.9072C64.2198 24.5605 64.0921 24.2717 63.9325 23.9828L63.8368 23.8384L63.7091 23.6939C63.6772 23.5495 63.6453 23.4339 63.5495 23.3473L63.5176 23.0295L63.6133 23.0006H63.741L63.8049 23.0295L63.8687 23.0873L63.7729 23.2606V23.3762L63.741 23.4628V23.5495L63.7729 23.6073L63.9006 23.5206L63.9644 23.3762V23.2029L63.9325 23.0295L63.9644 22.9718L64.2198 23.0873Z" fill="#231F20"/>
<path d="M50.5277 23.0007V23.2318L50.4 23.4051L50.2404 23.434H50.1127L50.017 23.3762L49.9531 23.2896V23.2029L50.0489 23.1451H50.1766L50.3361 23.0585L50.4319 23.0007" fill="#231F20"/>
<path d="M50.9413 23.0872H51.1009L51.2285 23.145V23.2606L51.2924 23.3472L51.452 23.2895H51.6115L51.6754 23.3761L51.7711 23.4339L51.8031 23.5206L51.6435 23.665C51.3881 23.925 51.42 23.6939 51.0051 23.925L50.7178 23.8383C50.7178 23.7228 50.7497 23.6072 50.654 23.5206L50.6221 23.3472L50.654 23.1739L50.6859 23.1161L50.7497 23.0872" fill="#231F20"/>
<path d="M49.8573 23.2606L49.7616 23.4339L49.5381 23.3761L49.3786 23.4339H49.1871L49.1232 23.405L49.0594 23.4339L48.9955 23.5206H48.8998L48.8359 23.4339V23.3473L48.8998 23.3184L48.9955 23.2895H49.0913L49.1871 23.2606L49.3786 23.2317L49.5701 23.1739L49.7935 23.2028" fill="#231F20"/>
<path d="M44.5909 23.434L44.559 23.4051H44.4951L44.3675 23.3184L44.2717 23.3762L44.2079 23.434L44.0802 23.4629L43.9844 23.4918L43.9206 23.4629L43.8887 23.4051L43.9525 23.3184L44.0483 23.2318H44.1759L44.3036 23.2029L44.3675 23.2318L44.4313 23.2029H44.559L44.7824 23.2607" fill="#231F20"/>
<path d="M54.4524 23.7228H54.229L54.0375 23.6072L53.9736 23.5206V23.4339L54.1971 23.0872L54.5801 23.405" fill="#231F20"/>
<path d="M55.0911 24.2139L54.8357 24.2428L54.6123 24.0695V24.0117L54.6442 23.8962L54.9953 23.8384" fill="#231F20"/>
<path d="M60.0067 23.3184L60.0706 23.2895L60.1344 23.2317H60.2302L60.294 23.2606L60.3259 23.3473L60.294 23.4339L60.1344 23.4628L59.9748 23.4339L59.7833 23.405L59.5918 23.3473V23.2606L59.6875 23.2317H59.7514L59.8791 23.2895" fill="#231F20"/>
<path d="M48.7394 23.4339V23.6072H48.6117L48.5479 23.5206L48.5798 23.4339L48.6117 23.3762H48.7075" fill="#231F20"/>
<path d="M46.1226 23.4339L46.0268 23.6072L45.931 23.5784L45.8672 23.5206V23.4339L45.931 23.3762L46.1226 23.4339Z" fill="#231F20"/>
<path d="M43.7922 23.434V23.5206L43.7284 23.6073L43.6645 23.6362L43.4092 23.5495L43.4411 23.4629H43.5049L43.5688 23.434L43.6964 23.4629L43.7922 23.4051" fill="#231F20"/>
<path d="M57.5489 23.4339H57.4844V23.4928H57.5489V23.4339Z" fill="#231F20"/>
<path d="M56.7502 23.6073V23.665V23.7228L56.6864 23.7806H56.5906L56.4948 23.7517L56.4629 23.6939L56.5267 23.5495L56.7502 23.6073Z" fill="#231F20"/>
<path d="M43.4403 23.7228L43.5041 23.8094L43.3764 23.925L43.153 23.8961L43.1211 23.7517L43.2488 23.6361L43.3764 23.665" fill="#231F20"/>
<path d="M46.7284 23.7228V23.8384L46.6007 23.8673L46.5049 23.8095L46.5687 23.665H46.6645" fill="#231F20"/>
<path d="M57.5181 23.8961L57.55 24.0695L57.4543 24.1561L57.3585 24.2428L57.2308 24.2717L56.9436 24.2428L56.6563 24.185L56.5925 24.1272L56.5605 24.0695L56.6882 23.9539C56.8159 23.9539 56.9117 23.8961 57.0393 23.8095H57.2628L57.5181 23.8961Z" fill="#231F20"/>
<path d="M50.7191 23.9828L50.8148 24.0695L50.7829 24.185C50.6233 24.6183 50.2084 24.3005 49.7615 25.1383L49.6977 25.2249L49.5381 25.1383V25.0805L49.57 24.9938L49.6338 24.8783L49.7934 24.6472L49.8892 24.3872C49.8892 24.2717 49.985 24.2428 50.0488 24.2428L50.1765 24.2139L50.2722 24.1272L50.368 24.0117L50.4956 23.925L50.7191 23.9828Z" fill="#231F20"/>
<path d="M43.1861 24.0405L43.1222 24.1272L43.0584 24.185L42.9626 24.1561L42.8669 24.0694L42.835 23.9828L42.9307 23.925L42.9946 23.8961L43.1861 24.0405Z" fill="#231F20"/>
<path d="M47.0145 23.9828V24.0694H46.8549L46.791 23.9539L46.8868 23.8961" fill="#231F20"/>
<path d="M42.0363 24.7338V24.8783L42.0044 24.9938L41.9725 25.0805L41.9086 25.1094L41.8129 25.1382L41.749 25.0805V25.0227L41.7809 24.8205L41.9406 24.6761L42.0044 24.7049" fill="#231F20"/>
<path d="M37.5369 26.0337L37.7922 26.0915H37.9518H38.0795L38.1752 26.0048L38.3029 25.9471L38.3348 26.0048L38.2391 26.1493L38.1114 26.1781L37.9837 26.207L37.8241 26.2359H37.6645L37.6007 26.1781L37.5049 26.1493L37.4092 26.0048L37.5049 25.9471L37.6007 25.9182" fill="white"/>
<path d="M64.9862 26.6404V26.727L64.9542 26.8137H64.8585L64.7627 26.6981V26.5826L64.8585 26.5248L64.9223 26.5537" fill="#231F20"/>
<path d="M64.6983 27.3048V27.4492L64.6026 27.4781L64.5068 27.4492V27.3625L64.5387 27.2759L64.6983 27.3048Z" fill="#231F20"/>
<path d="M47.2713 28.1714V28.2292H47.1436L47.0479 28.1425V28.0558H47.1755" fill="#231F20"/>
<path d="M46.856 28.1714L46.7921 28.2292L46.7602 28.3447H46.6644L46.6325 28.2581L46.6006 28.2003V28.1425L46.7602 28.0558" fill="#231F20"/>
<path d="M47.2394 28.4025V28.4891L47.2075 28.5469L47.016 28.5758L46.9521 28.518V28.4602L46.9841 28.3736H47.1118L47.1756 28.4025" fill="#231F20"/>
<path d="M42.291 28.7202V28.9802C42.0676 29.2402 41.9399 28.9802 41.8122 28.8358L41.6846 28.778V28.7202L41.7484 28.6625L41.8122 28.5758C42.0357 28.5469 42.1953 28.6047 42.291 28.7202Z" fill="#231F20"/>
<path d="M42.8032 29.1535V29.2402L42.7713 29.3268V29.4713L42.867 29.529L42.9628 29.5868L42.899 29.6735H42.8351L42.7713 29.7024L42.4521 29.7313H42.1329L41.9414 29.5579C41.9414 29.4424 42.0372 29.3268 42.1648 29.2691H42.2925L42.3244 29.3268V29.3846L42.3883 29.5002L42.484 29.6446L42.5798 29.5868V29.529L42.5479 29.5002V29.4135L42.484 29.3268V29.2402L42.5479 29.1535L42.6436 29.0957C42.6436 29.038 42.7394 29.0957 42.8032 29.1535Z" fill="#231F20"/>
<path d="M63.0399 29.3557L62.9761 29.5001L62.6888 29.529L62.625 29.4135C62.6569 29.3268 62.7846 29.2402 62.9123 29.2402L62.9761 29.269" fill="#231F20"/>
<path d="M41.0783 29.3846L41.0462 29.4713L41.0142 29.5002L40.9502 29.4424L41.0142 29.3268" fill="white"/>
<path d="M41.7492 29.5868V29.6735L41.6854 29.7601L41.7173 29.8468L41.6854 29.9046H41.5896H41.5258L41.4619 29.8468V29.789L41.5258 29.6446L41.6215 29.5579" fill="#231F20"/>
<path d="M61.3791 29.789L61.3152 29.8468L61.1875 29.7601V29.7024L61.2194 29.6446H61.2833H61.3471" fill="#231F20"/>
<path d="M61.5714 29.7312V29.8179L61.5394 29.8757L61.4754 29.8468L61.4434 29.7601V29.7023L61.5714 29.7312Z" fill="#231F20"/>
<path d="M62.2731 29.7894L62.2411 29.8475L62.1773 29.9056H62.1135L62.0496 29.8475L61.922 29.9056H61.7943L61.7624 29.8475L61.7305 29.7894L61.7943 29.7312H61.8901L61.9858 29.7894L62.1454 29.7312H62.2092" fill="#231F20"/>
<path d="M42.3561 29.9045L42.3242 30.1356H42.1646L42.0688 30.1067L41.9731 30.0779L41.8773 30.049L41.8135 29.9334L41.9092 29.8757L42.0369 29.8468L42.1965 29.8757" fill="#231F20"/>
<path d="M42.9299 29.9335L42.9938 30.0779L43.1215 30.1934L43.0895 30.2512V30.309L43.1534 30.3379H43.2491L43.3768 30.3956L43.5045 30.4245L43.6322 30.4823L43.7598 30.6556V30.8578L43.6641 30.9445H43.4726L43.2811 30.9734L43.0257 31.0312H42.7384L42.515 31.0601L42.4512 30.9445C42.515 30.4245 42.898 30.7423 43.0257 30.2801L42.9938 30.2223C42.8342 30.2223 42.6746 30.2223 42.5788 30.1357L42.5469 30.0201V29.9046C42.6108 29.8179 42.7704 29.8179 42.8661 29.8179" fill="#231F20"/>
<path d="M47.4932 30.2223L47.3975 30.1645L47.2698 30.2512L47.1421 30.1934L47.0464 30.3089L47.206 30.3667L47.2379 30.2801H47.3336L47.4294 30.3089L47.4932 30.2223ZM46.9825 30.1934L46.8868 30.1645L46.791 30.3089L46.8549 30.3956L46.9825 30.3667V30.2801V30.1934Z" fill="#231F20"/>
<path d="M42.0055 30.4245V30.6845L42.0374 30.9445V31.1467H41.9735L41.5905 30.8289L41.5586 30.7423V30.6556L41.6863 30.5978L41.782 30.4823L41.8778 30.309" fill="#231F20"/>
<path d="M47.5262 31.6089L47.622 31.8688L47.5581 31.9555L47.4305 32.0422L47.3028 32.0133L47.207 31.9266V31.8111L47.2389 31.6955V31.5222L47.2709 31.3489L47.3666 31.2911L47.4624 31.4355" fill="#231F20"/>
<path d="M47.941 32.1L48.2283 32.2733L48.2602 32.36L48.1963 32.4755L48.1325 32.5333L48.0367 32.5911L47.7814 32.5044L47.558 32.3889L47.4941 32.1578L47.5899 32.0711L47.6856 32.0133L47.8133 32.0422" fill="#231F20"/>
<path d="M46.0576 32.1L46.1215 32.1577V32.2444L45.9938 32.2733H45.8661L45.898 32.5044L45.9938 32.591L46.0257 32.6777L45.9938 32.851L45.898 32.9666L45.6746 32.9088C45.5469 32.7932 45.4831 32.6199 45.4512 32.4466L45.5789 32.3022H45.6427L45.7065 32.2733L45.8023 32.0711L46.0576 32.1Z" fill="#231F20"/>
<path d="M62.7522 32.9088L62.848 33.111L62.8799 33.3132C62.7841 33.371 62.6565 33.3999 62.5607 33.4288L62.2096 33.4577C62.05 33.4577 61.9223 33.371 61.8266 33.2844L61.7308 33.2266L61.667 33.1399L61.6989 33.0533L61.7947 32.9955L61.8904 32.9666L61.9862 32.9088L62.1777 32.8222L62.3692 32.7933H62.5607" fill="#231F20"/>
<path d="M30.7059 34.0065L30.7697 34.1221L30.8017 34.2087L30.8974 34.4109L31.057 34.3821L31.1847 34.4109L31.2804 34.642L31.3443 34.8731L31.2804 35.1331V35.3642L31.2485 35.4509L31.1847 35.5375H31.057L30.9613 35.4797L30.8017 35.2775L30.6421 35.0464L30.5782 34.9309L30.5463 34.7865L30.4825 34.6131L30.4506 34.5265V34.4398L30.3867 34.2954V34.151L30.5463 33.9776H30.6421" fill="#231F20"/>
<path d="M43.4411 34.6709L43.6964 34.7286H43.8241L43.9517 34.7575L44.1432 34.9597C44.1432 35.1042 44.0794 35.2197 43.9517 35.3064L43.8241 35.3353L43.6964 35.3642C43.5368 35.4508 43.3134 35.4797 43.1538 35.3642L43.0261 35.2775L42.9623 35.1619L43.058 35.1042L43.0899 35.0175L42.9623 34.902L42.8984 34.7864L42.9304 34.642L43.058 34.5553C43.2495 34.4975 43.3772 34.5553 43.4411 34.6709Z" fill="#231F20"/>
<path d="M45.1339 34.4398H45.0693V34.6709H45.1339V34.4398Z" fill="#231F20"/>
<path d="M31.4084 35.7974L31.4404 35.913L31.3446 36.0863H31.2488L31.1531 36.0574L31.0892 35.9707L31.0254 35.913V35.8263L31.0573 35.7108L31.2169 35.653" fill="#231F20"/>
<path d="M72.0391 35.7397V35.8552L71.9433 35.913H71.8795L71.7837 35.9419L71.7199 35.9708L71.5922 35.9997L71.4964 35.9708L71.4326 35.8264L71.4964 35.7686L71.5603 35.7397H71.656L71.7518 35.6819H71.9752" fill="#231F20"/>
<path d="M31.5669 36.4337L31.5031 36.5209H31.3754L31.2797 36.4918L31.2158 36.3465L31.3435 36.3174L31.4712 36.3465" fill="#231F20"/>
<path d="M31.758 36.6063V36.664H31.6303L31.5664 36.6063L31.5983 36.5774L31.6303 36.5485L31.758 36.6063Z" fill="#231F20"/>
<path d="M31.8222 36.8374L31.7583 36.9529L31.6945 37.0685L31.6307 37.1263L31.5668 37.184L31.4391 37.1551L31.4072 37.0685L31.503 36.9818L31.5987 36.9529V36.8663L31.6307 36.7796L31.7264 36.7507" fill="#231F20"/>
<path d="M18.385 37.2129V37.2996L18.3531 37.3862L18.2254 37.444L18.0658 37.4151L17.9701 37.3285L17.9062 37.2418L17.9701 37.0974H18.1935" fill="#231F20"/>
<path d="M16.6929 37.4151V37.5018L16.661 37.5595L16.5972 37.5884L16.5014 37.5595L16.3738 37.444L16.2461 37.3285V37.2707L16.3738 37.184L16.5653 37.2707" fill="#231F20"/>
<path d="M31.3445 37.2706V37.3862L31.2169 37.4728L31.1211 37.444V37.3284L31.2169 37.2417L31.3445 37.2706Z" fill="#231F20"/>
<path d="M22.79 37.2417H22.6621V37.329H22.79V37.2417Z" fill="#231F20"/>
<path d="M16.3423 37.6751L16.3742 37.7329L16.2785 37.7618H16.1827L16.0231 37.7906L15.9912 37.7618C15.9912 37.6751 16.0231 37.5595 16.1508 37.5018L16.2466 37.5595" fill="#231F20"/>
<path d="M74.2092 38.3395V38.4262L74.1453 38.5128L74.0815 38.5417H74.0176L73.9538 38.4839L73.9219 38.4262L73.9538 38.3395L74.0176 38.2817H74.1134" fill="#231F20"/>
<path d="M16.3098 38.5417L16.214 38.6572C16.0863 38.6572 15.9906 38.5995 15.9268 38.5128L15.9587 38.4551L16.0225 38.4262L16.1502 38.3973H16.2779L16.3098 38.4839" fill="#231F20"/>
<path d="M73.9224 38.7728L73.8904 38.8884L73.7308 38.9461L73.667 38.8884V38.8017L73.7628 38.715L73.9224 38.7728Z" fill="#231F20"/>
<path d="M58.9863 38.8883C59.0182 39.0617 58.9225 39.2061 58.8586 39.3217L58.6033 39.3505L58.4756 39.2061V39.0039L58.6352 38.8017L58.8267 38.7728L58.9863 38.8883Z" fill="#231F20"/>
<path d="M51.836 39.0906L51.7402 39.3794L51.6125 39.4661L51.4849 39.495L51.2295 39.3506L51.421 39.1772L51.6764 39.0328H51.7721" fill="#231F20"/>
<path d="M46.7599 39.3505L46.7918 39.466V39.5527L46.6641 39.5816L46.6003 39.5238L46.5684 39.4083L46.6322 39.3505" fill="#231F20"/>
<path d="M72.933 39.4949C72.933 39.6105 72.9011 39.6971 72.8372 39.7838L72.7734 39.8993L72.7415 40.0149C72.7096 40.1016 72.6777 40.1593 72.55 40.1593L72.3904 40.1304L72.2946 40.0438L72.2627 39.8993L72.3265 39.7549L72.518 39.6105L72.7096 39.4372L72.933 39.4949Z" fill="#231F20"/>
<path d="M16.1503 39.495H16.0859V39.6101H16.1503V39.495Z" fill="white"/>
<path d="M16.6612 39.7839L16.725 39.8994L16.7889 40.0149L16.6293 40.2172L16.5654 40.1594V39.8416L16.5974 39.755L16.5654 39.6683L16.6293 39.6972" fill="white"/>
<path d="M46.9833 39.8127C46.9833 39.9283 46.9833 40.0727 46.8237 40.1594L46.6322 40.1305L46.5684 40.0727V40.0149C46.6003 39.8994 46.6322 39.7838 46.7918 39.7261L46.8875 39.7549" fill="#231F20"/>
<path d="M50.4637 39.8994C50.4957 40.0149 50.3999 40.0727 50.3041 40.1016L50.0169 40.1883C49.8892 40.2171 49.7296 40.246 49.6019 40.1883L49.5381 40.1305V40.0727L49.6338 40.0149L49.7615 39.9572L49.9211 39.9283L50.0807 39.8705C50.2084 39.8416 50.3999 39.7839 50.4637 39.8994Z" fill="#231F20"/>
<path d="M48.0055 40.1883V40.3327L47.9417 40.4482H47.7182L47.4948 40.3905L47.4629 40.3327V40.2171L47.7182 40.0149L47.814 39.986H47.9098L47.9736 40.1016" fill="#231F20"/>
<path d="M16.9808 40.246L17.0128 40.3038L17.0448 40.3616H17.0128L16.9168 40.2749L16.8848 40.1882L16.9808 40.246Z" fill="white"/>
<path d="M65.0497 41.8637V42.037L64.8901 42.1526L64.7305 42.1815L64.6667 42.1526L64.6348 42.0948L64.6667 41.9215L64.7305 41.777C64.8582 41.6904 64.9859 41.7482 65.0497 41.8637Z" fill="#231F20"/>
<path d="M17.874 42.4414V42.4992L17.842 42.557L17.7782 42.6147L17.7144 42.6436L17.5229 42.5281L17.459 42.3837L17.4271 42.2681L17.3633 42.1526V42.0948L17.3952 42.037L17.5229 41.9503C17.6505 41.9792 17.7144 42.037 17.7782 42.1237" fill="#231F20"/>
<path d="M64.6672 42.4703L64.6991 42.5569V42.6436C64.6353 42.7303 64.5715 42.8458 64.4438 42.8169L64.2842 42.7014V42.6147L64.3161 42.5281L64.4119 42.4414L64.5395 42.4125L64.6672 42.4703Z" fill="#231F20"/>
<path d="M20.3643 42.4702H20.2998V42.558H20.3643V42.4702Z" fill="#231F20"/>
<path d="M19.3434 43.5102L19.471 43.6547L19.5349 43.7991C19.471 43.8858 19.3433 43.9436 19.2476 43.9147C19.088 43.828 18.9284 43.6836 18.8965 43.5102L18.9603 43.3658L19.1838 43.3947" fill="#231F20"/>
<path d="M19.885 44.2613L19.9488 44.319L19.9807 44.3768C20.0765 44.4924 20.1403 44.6368 20.2042 44.7812L20.1722 44.839L20.1084 44.8679L20.0126 44.8968H19.9169C19.7254 44.839 19.5977 44.6657 19.5977 44.4924L19.502 44.3768V44.2324L19.5977 44.1457L19.7254 44.0591L19.8211 44.1168" fill="#231F20"/>
<path d="M60.2616 44.8679L60.2297 44.9256H60.1658H60.0701L59.9743 44.839L59.9424 44.6945H60.0381L60.1658 44.7812L60.2616 44.8679Z" fill="#231F20"/>
<path d="M40.5034 48.4499V48.6521L40.4077 48.7098H40.3119L40.1523 48.5654L40.1843 48.4787L40.2481 48.3921L40.28 48.3343L40.5034 48.4499Z" fill="#231F20"/>
<path d="M43.1542 50.5008L43.1223 50.7608L42.9946 50.7897L42.8988 50.7319L42.835 50.6741L42.9307 50.4431L43.1542 50.5008Z" fill="#231F20"/>
<path d="M27.002 52.2918L27.1935 52.4362L27.2893 52.6384V52.8117L27.1935 52.8984L27.0339 52.8406L26.9062 52.7251L26.4275 52.2629L26.3317 52.2051L26.2998 52.1185L26.3317 51.9451H26.5871L26.8105 52.0896" fill="#231F20"/>
<path d="M44.0146 64.6553L43.1209 64.9441C39.7056 66.1574 36.2584 68.0639 33.4176 71.097L35.0455 71.5881C37.7905 68.1795 41.2058 65.9263 44.4934 65.0308L45.0998 64.8864L45.6105 65.0019C48.8981 65.8974 52.3134 68.1506 55.0584 71.5592L56.6862 71.0681C53.8455 68.035 50.3983 66.1285 46.983 64.9153L46.217 64.6553L46.9192 64.5686L47.7171 64.5397C48.5789 64.5397 49.5365 64.713 50.6217 65.0308L52.2815 65.5508L54.1008 66.1285C56.6224 66.9373 59.4631 67.7173 62.5592 67.7173C65.9107 67.7173 72.1029 67.0818 74.4329 64.3086C70.858 65.6663 67.8577 65.3486 64.7935 64.6842L62.4635 64.1353L60.0377 63.5865C58.3779 63.2398 56.6224 63.0087 54.6434 63.0087C52.4091 63.0087 49.313 63.2398 45.9616 64.0487L45.036 64.3086L44.0465 64.0487C40.6951 63.2109 37.599 63.0087 35.3647 63.0087C33.3857 63.0087 31.6302 63.2687 29.9704 63.5865L27.5446 64.1353L25.2146 64.6842C22.1504 65.3486 19.1501 65.6663 15.5752 64.3086C17.9052 67.0818 24.1294 67.7173 27.4489 67.7173C30.545 67.7173 33.4176 66.9084 35.9073 66.1285L37.7266 65.5508L39.4183 65.0308C40.5036 64.7419 41.4611 64.5397 42.3229 64.5397C42.9294 64.5397 43.4401 64.5975 44.0146 64.6553Z" fill="#231F20"/>
<path d="M19.6609 58.1558C18.8629 56.7981 18.7033 55.7004 18.5756 54.4005L18.448 53.3895L18.2884 52.2918C18.1288 51.5118 17.9054 50.6452 17.5223 49.6342C17.3627 49.2587 17.0755 48.7098 16.6924 48.0454L15.4157 45.8211C14.4901 44.2613 13.5325 42.6147 13.0857 41.5748C12.9899 43.4235 13.1176 44.9545 13.2772 46.3122L13.5006 48.3054C13.5644 48.9409 13.6283 49.5764 13.6602 50.2119C13.9475 51.7718 15.3519 54.4583 18.0969 57.0292C17.4585 56.6248 16.4371 55.7582 15.32 54.8049L13.6283 53.3606C13.0537 52.8984 12.5111 52.4362 12.0323 52.0895L10.0853 50.7608C9.31927 50.2408 8.48939 49.6342 7.62759 48.9698C5.90399 47.641 4.14847 45.9945 3.03132 44.0879C3.89312 50.183 7.85102 54.0539 10.8514 55.6715C11.9366 56.2492 13.5325 56.6825 15.1284 57.0581L17.5543 57.6069C18.2565 57.7513 18.9906 57.9536 19.6609 58.1558ZM30.1302 62.1421C28.63 61.6511 27.7363 60.4667 26.9383 59.1379L25.7254 57.087C25.3105 56.3937 24.8317 55.7582 24.2571 55.1804L21.4802 52.3784C20.3631 51.2229 19.1502 50.0386 18.2565 49.2875C19.2778 52.8406 19.8524 54.6605 21.1291 56.9714C22.0228 58.7335 23.938 60.38 27.6086 61.6799C26.8425 61.5644 25.9488 61.3044 24.9274 60.9867L23.2996 60.4956L21.5121 60.0334L18.9906 59.5134C17.9692 59.3112 16.7882 59.0224 15.6072 58.7046C13.1814 58.0402 10.596 57.1447 8.6809 55.8159C12.4473 61.9977 18.7991 63.2109 21.3526 63.3554C22.6293 63.4131 24.4487 63.1821 26.1403 62.8932L28.5023 62.4599L30.1302 62.1421ZM12.3834 50.2697C11.3301 48.9987 11.3621 47.2077 11.5536 45.0123L11.7132 43.2791L11.8727 41.4303C11.9685 40.1593 12.0004 38.8017 11.8727 37.3862C11.7132 35.8263 11.4259 34.4975 10.4683 32.1577C9.41502 35.3641 8.93625 38.455 8.96817 40.9104C8.96817 42.6725 9.032 45.2723 10.9152 48.3921C10.6598 48.1321 10.4045 47.7277 10.1172 47.2655L9.25544 45.6767C8.64898 44.5501 8.01061 43.308 7.24456 42.3547C6.86154 41.8925 6.31893 41.3148 5.71248 40.6793C5.07411 40.0438 4.3719 39.3216 3.70161 38.5128C2.2972 36.924 0.956621 35.0175 0.350169 32.9088C0.350169 36.5774 1.62691 39.7549 3.38243 42.4703C4.08464 43.568 5.80823 45.099 7.59567 46.5433L10.2449 48.6231L12.3834 50.2697ZM7.05306 40.4193C6.70196 38.9172 7.18073 37.2129 7.8191 35.6819C8.13829 34.9308 8.5213 34.1798 8.84049 33.5443L9.28736 32.6488L9.63845 31.9266C9.92572 31.1756 11.0748 27.4492 10.8194 24.5316C8.87241 27.3625 8.1702 28.4024 7.468 29.7601C6.57428 31.58 5.71247 33.7465 5.96782 37.0107C5.74439 36.2885 5.48905 35.393 5.26562 34.4109L4.53149 31.3778C4.27614 30.4245 3.92504 29.5868 3.54202 28.778L2.93556 27.5936L2.29719 26.4381C1.46731 24.8783 0.733187 23.2606 0.605513 21.0941C-0.479717 24.6183 0.126737 28.2291 1.11621 31.2333C1.59499 32.6777 2.6483 34.2087 3.79737 35.7686L5.52096 38.1084C6.12742 38.8883 6.63812 39.6683 7.05306 40.4193ZM21.3845 3.87761C19.629 4.51312 15.6711 6.65073 14.4901 7.92175C13.341 9.13499 11.9047 11.5615 11.3621 13.4969C12.0004 12.9192 12.7346 12.457 13.5325 11.937L14.7135 11.1571C15.0965 10.8971 15.4795 10.6082 15.8307 10.3193C16.5329 9.71273 17.3947 8.67281 18.3522 7.48845L19.8205 5.66859C20.3312 5.03308 20.8738 4.42646 21.3845 3.87761ZM7.59567 21.4985C8.6809 19.8809 9.70229 19.0143 10.7875 18.2054L12.4792 16.9922C13.0857 16.5589 13.6921 16.0678 14.3943 15.4323C15.0327 14.8546 18.033 11.7926 18.9906 9.16388C17.9054 10.146 17.1393 10.7527 16.3094 11.3015L15.0327 12.0814L13.4687 12.9769C11.8727 13.988 10.3087 15.6634 9.51078 16.9055C9.5427 16.5589 9.60654 16.2411 9.70229 15.9523L10.0853 14.9701C10.3726 14.2191 10.7237 13.208 11.011 11.5037C11.394 9.19277 12.2877 7.22847 13.341 5.78413C9.76613 7.83509 8.04253 11.8792 7.56375 14.1324C7.27648 15.4612 7.40416 16.4722 7.49992 17.541L7.59567 18.3787L7.65951 19.2742C7.69143 19.9386 7.69142 20.6608 7.59567 21.4985ZM5.42521 31.84C5.39329 30.3956 6.31892 28.8646 7.40415 27.4492L8.23404 26.4093L9.06392 25.4271C9.60654 24.7916 10.0534 24.2428 10.4045 23.7517C10.8833 23.0584 13.0857 19.4187 14.4262 16.5011L12.16 18.4654L10.5322 19.8231C9.57462 20.603 8.84049 21.2096 7.88293 22.1629C7.27648 22.8273 6.82963 23.665 6.51044 24.4738L6.0955 25.6871L5.7444 26.8137C5.68056 26.467 5.71247 26.0915 5.80823 25.6293L6.19125 24.1272C6.47852 23.0006 6.76579 21.6141 6.54236 19.8809L6.31893 18.0032C6.25509 17.3388 6.19125 16.6167 6.19125 15.8945C6.19125 14.4213 6.38276 12.8614 7.11689 11.3304C3.63777 14.5368 2.9994 19.9964 3.19092 22.3073C3.28667 23.6361 3.70161 25.2827 4.14847 26.9292L4.85067 29.4135C5.04218 30.309 5.26562 31.0889 5.42521 31.84Z" fill="#231F20"/>
<path d="M70.3804 58.1846C71.0188 57.9824 71.7529 57.7802 72.5509 57.578L74.9767 57.0292C76.6045 56.6536 78.1685 56.2203 79.2857 55.6426C82.286 54.0249 86.2439 50.1541 87.1057 44.0879C85.9885 45.9944 84.233 47.641 82.5094 48.9698C81.6476 49.6342 80.7858 50.2408 80.0517 50.7607L78.1366 52.0895C77.6259 52.465 77.0833 52.8983 76.5088 53.3894L74.8171 54.8338C73.6999 55.787 72.7104 56.6825 72.0402 57.058C74.7852 54.4871 76.1896 51.8295 76.4768 50.2408C76.5088 49.6053 76.5726 48.9698 76.6364 48.3342L76.8599 46.3411C77.0195 44.9545 77.1471 43.4524 77.0514 41.6036C76.6045 42.6436 75.647 44.2612 74.7213 45.85C73.7957 47.4099 72.902 48.912 72.6147 49.663C72.2317 50.6741 71.9763 51.5407 71.8487 52.3495L71.6571 53.4472L71.5295 54.4582C71.338 55.7293 71.2103 56.8269 70.3804 58.1846ZM59.9111 62.171L61.539 62.4887L63.9009 62.922C65.5926 63.2109 67.4439 63.442 68.6887 63.3842C71.2422 63.2398 77.594 62.0266 81.3604 55.8448C79.4453 57.1736 76.8599 58.0691 74.434 58.7335C73.2211 59.0512 72.0402 59.3112 71.0188 59.5423L68.4972 60.0623L66.7098 60.5244L65.0819 61.0155C64.0605 61.3333 63.1668 61.5933 62.4008 61.7088C66.0714 60.4089 67.9865 58.7912 68.8802 57.0003C70.157 54.6893 70.7315 52.8695 71.7529 49.3164C70.8911 50.0963 69.6782 51.2807 68.5291 52.4073L65.7522 55.2093C65.1777 55.787 64.6989 56.4225 64.284 57.1158L63.0711 59.1668C62.2731 60.4956 61.3794 61.6799 59.9111 62.171ZM77.6578 50.2985L79.7644 48.6809L82.4137 46.601C84.233 45.1567 85.9247 43.6257 86.6269 42.528C88.3505 39.7838 89.6592 36.6351 89.6592 32.9665C89.0527 35.0752 87.7121 36.9818 86.3077 38.5705C85.6055 39.3794 84.9033 40.1015 84.2969 40.737C83.6904 41.3726 83.1478 41.9503 82.7648 42.4125C81.9987 43.3657 81.3604 44.579 80.7539 45.7344L79.8921 47.3232C79.6049 47.7854 79.3495 48.1898 79.0942 48.4498C80.9774 45.33 81.0412 42.7302 81.0412 40.9681C81.0731 38.5128 80.5943 35.393 79.541 32.2155C78.5835 34.5553 78.2962 35.8841 78.1366 37.444C78.0089 38.8594 78.0409 40.2171 78.1366 41.4881L78.2962 43.3368L78.4877 45.0701C78.6792 47.2077 78.6792 49.0275 77.6578 50.2985ZM82.9882 40.4482C83.4031 39.6971 83.9458 38.9172 84.4884 38.1372L86.2439 35.7974C87.393 34.2375 88.4463 32.7065 88.9251 31.2622C89.9145 28.2291 90.521 24.6471 89.4357 21.123C89.3081 23.2895 88.5739 24.9071 87.7441 26.467L87.1057 27.6225L86.4992 28.8068C86.1162 29.6157 85.7651 30.4534 85.5098 31.4066L84.7756 34.4397C84.5522 35.4219 84.3288 36.3174 84.0734 37.0395C84.3288 33.7753 83.4351 31.6088 82.5733 29.789C81.8711 28.4313 81.1689 27.3625 79.2218 24.5605C78.9665 27.478 80.0836 31.2044 80.3709 31.9555L80.6901 32.6777L81.1369 33.5731C81.4561 34.2086 81.8391 34.9308 82.1583 35.7108C82.8605 37.2418 83.3393 38.9461 82.9882 40.4482ZM68.6568 3.90648C69.1994 4.45533 69.7101 5.06195 70.2208 5.66857L71.6891 7.48843C72.6466 8.67279 73.5084 9.71271 74.2106 10.3193C74.5617 10.6082 74.9447 10.8971 75.3278 11.157L76.5088 11.937C77.2748 12.4281 78.0408 12.9191 78.6792 13.4969C78.1366 11.5615 76.7003 9.13497 75.5512 7.92173C74.3702 6.6796 70.4123 4.5131 68.6568 3.90648ZM82.4456 21.4985C82.3498 20.6608 82.3179 19.9675 82.3498 19.332L82.4137 18.4365L82.5094 17.5988C82.6371 16.5011 82.7329 15.4901 82.4775 14.1902C81.9987 11.937 80.2751 7.89284 76.7003 5.84189C77.7536 7.28622 78.6473 9.25052 79.0303 11.5615C79.3176 13.2947 79.6687 14.2768 79.9559 15.0279L80.339 16.01C80.4347 16.2989 80.4986 16.6166 80.5305 16.9633C79.7006 15.7211 78.1366 14.0746 76.5726 13.0347L75.0086 12.1392L73.7318 11.3593C72.9339 10.8104 72.1359 10.2038 71.0507 9.22163C72.0083 11.8503 75.0405 14.9123 75.6469 15.4901C76.3172 16.1256 76.9556 16.6166 77.5621 17.0499L79.2538 18.2632C80.3709 19.0142 81.3604 19.9097 82.4456 21.4985ZM84.648 31.8688C84.8076 31.1178 84.9991 30.3378 85.2225 29.5001L85.9247 27.0159C86.3716 25.3404 86.7865 23.7228 86.8823 22.3651C87.0419 20.0542 86.4354 14.5946 82.9563 11.3881C83.6904 12.9191 83.8819 14.479 83.8819 15.9522C83.8819 16.6744 83.8181 17.3966 83.7543 18.061L83.5308 19.9386C83.3393 21.6718 83.5947 23.0584 83.8819 24.185L84.2649 25.6871C84.3607 26.1204 84.3926 26.5248 84.3288 26.8714L83.9777 25.7448L83.5627 24.5316C83.2436 23.7228 82.8286 22.8851 82.1902 22.2207C81.2327 21.2674 80.4986 20.6608 79.541 19.8808L77.9132 18.5232L75.6789 16.5589C77.0195 19.4475 79.2537 23.1161 79.7006 23.8094C80.0198 24.3005 80.4986 24.8493 81.0093 25.4849L81.8391 26.467L82.669 27.5069C83.7542 28.8935 84.648 30.4245 84.648 31.8688Z" fill="#231F20"/>
<path d="M16.2776 38.1662H15.8945V38.2548H16.2776V38.1662Z" fill="#231F20"/>
<path d="M41.5244 25.5138H41.4297V25.5723H41.5244V25.5138Z" fill="#231F20"/>
<path d="M36.2593 33.9198H36.0039V33.9789H36.2593V33.9198Z" fill="#231F20"/>
<path d="M40.377 33.8043L40.4089 33.7465L40.4727 33.6887L40.5046 33.6309L40.5685 33.5732L40.6961 33.3999L40.8238 33.1976L41.0153 33.0532L41.1111 32.9377L41.1749 32.7932L41.3026 32.591L41.4941 32.5044L41.7175 32.4466L41.7814 32.4177L41.8452 32.3888V32.4466L41.8133 32.5044L41.7814 32.6199L41.8771 32.6777L41.9729 32.5333V32.3022L42.0048 32.0711L42.0686 31.9266L42.1006 31.7533L42.0686 31.4644L42.1006 31.3489L42.1963 31.2622C42.324 31.2045 42.5155 31.1756 42.6751 31.2334L42.8666 31.2045C43.3773 31.06 43.3454 31.2334 43.6646 31.1178L43.8242 31.1467C43.9838 31.1467 44.1114 31.1756 44.271 31.2334L44.686 31.4356L44.7179 31.5222L44.7498 31.6089L44.654 31.7244L44.5264 31.8111L44.5902 31.9266H44.686L44.7498 31.9555C44.8136 32.0711 44.7179 32.2155 44.654 32.3022L44.5902 32.4177L44.5264 32.5044L44.4625 32.7066L44.3029 32.8221L44.2072 32.9377L44.0795 32.9954L44.1114 33.0821L44.1753 33.1399L44.1433 33.2554L44.0795 33.371L44.0476 33.4865L43.9199 33.5443H43.7922L43.7603 33.6021L43.8561 33.6309L43.9199 33.7176L43.888 33.8332C43.4411 34.122 43.4411 34.2087 42.8347 34.122L42.707 34.1509C42.5155 34.3242 42.1963 34.2953 41.9729 34.2376L41.8133 34.2953L41.6856 34.382C41.526 34.4109 41.4303 34.4975 41.3026 34.5842L40.5046 34.4398" fill="#231F20"/>
<path d="M44.5578 36.8374L44.5259 36.8951L44.494 37.0107L44.3663 36.9818L44.3024 36.8663L44.2705 36.7218L44.462 36.664" fill="#231F20"/>
<path d="M60.6768 45.0124L60.7087 45.099L60.7406 45.1857C60.8044 45.5323 61.0598 45.5034 61.0917 45.7634L61.1236 45.9078L61.2513 46.1389L61.379 46.2256L61.5386 46.2834L61.8896 46.3411L61.9854 46.3123L62.0812 46.3411L62.911 45.7634L62.9749 45.5612L63.0068 45.359C63.0068 45.1857 62.9749 44.9835 62.8791 44.8102L62.8153 44.5502L62.7195 44.3191V44.1746V44.0302C62.7195 43.9147 62.6557 43.828 62.5599 43.7702L62.4323 43.5969V43.3947L62.3046 43.3369L62.1769 43.2792L61.8577 43.1925C61.762 43.1636 61.6662 43.1347 61.5386 43.1347L61.4428 43.1636L61.379 43.2214V43.3947L61.2832 43.5391C61.3151 43.6547 61.2832 43.7702 61.2832 43.8569L61.2513 44.1746L61.1555 44.2035" fill="#231F20"/>
<path d="M59.8783 44.3191L59.8464 44.4346L59.7507 44.4635L59.7188 44.5213L59.7826 44.6368L59.9102 44.6079L60.006 44.4924L60.1337 44.2324" fill="#231F20"/>
<path d="M63.8044 26.496L63.7725 26.5826L63.7406 26.6693C63.581 27.1603 63.5491 27.2759 63.3257 27.7092L63.2618 27.8825L63.1022 28.1425L63.0703 28.3736L63.1022 28.6047L63.0703 28.7202V28.8358L63.1022 28.9224L63.1661 28.9802H63.3257L63.4214 28.9513H63.5172L64.2832 27.4492L64.5067 27.0159C64.6024 26.9293 64.6662 26.7848 64.6343 26.6693L64.6663 26.496L64.6343 26.2937L64.6982 26.1493L64.7301 26.0049L64.6663 25.8893L64.5705 25.7738C64.4428 25.8027 64.3151 25.8604 64.2194 25.9182L63.9321 26.1782L63.8364 26.2649L63.7725 26.3515" fill="#231F20"/>
<path d="M44.463 37.1552H44.3984V37.214H44.463V37.1552Z" fill="#231F20"/>
<path d="M47.1123 33.4865H46.9844V33.5454H47.1123V33.4865Z" fill="#231F20"/>
<path d="M39.483 32.331L39.4192 32.4755C39.3554 32.6199 39.3235 32.7643 39.2596 32.9376L39.2277 32.9954L39.1958 32.9665L39.1639 32.9088L39.1319 32.851L39.0681 32.7932L38.9404 32.7354L39.0043 32.6199L39.0681 32.4755L39.1639 32.3599L39.3234 32.2733" fill="white"/>
<path d="M44.0473 25.6582L44.3665 25.5715L44.3984 25.5426L44.3665 25.456C44.2708 25.3982 44.1112 25.3982 43.9835 25.4271L43.9197 25.4849L43.8878 25.5426L43.8558 25.5715L43.792 25.6582L43.7282 25.6293L43.6962 25.5715V25.5426L43.7282 25.3693L43.8239 25.2249L43.1217 24.676L42.9621 24.7049L42.8025 24.676L42.8344 24.5316L42.8983 24.3872C42.9302 24.3005 42.9621 24.2139 42.8344 24.1272L42.5791 24.2716L42.3557 24.6472C42.2599 24.7338 42.1961 24.8783 42.1961 24.9938L42.1003 25.0805V25.196L41.9407 25.3693L41.7492 25.4849L41.7173 25.5138L41.5896 25.5426L41.5577 25.5138H41.4619L41.3662 25.6004L41.3343 25.716C41.3343 25.8026 41.3023 25.8604 41.1747 25.8315L41.0151 25.7737L40.8555 25.8604L40.6959 25.8893L39.3872 25.9471L39.3234 26.0337L39.2276 26.0915H39.1319L39.0681 26.1782L38.9723 26.207V26.1204V26.0337L38.8127 25.9471L38.6531 25.8893L38.5893 25.8604L38.5254 25.8893L38.4297 25.8315L38.3658 25.8026H38.302L38.1743 25.8315L38.0786 25.8604L37.8552 25.8893L37.7913 25.9471H37.7275V25.8604L37.536 25.716L37.4402 25.6582L37.3445 25.5715L37.3125 25.5426C37.2168 25.3982 37.0253 25.2538 36.8338 25.2538L36.5784 25.1093L36.3231 25.0516L35.8762 24.9649C35.7166 24.936 35.5889 24.936 35.4293 24.9938H35.3017H35.2059C35.0144 25.0227 34.8548 25.1671 34.6952 25.2827C34.5675 25.3404 34.4079 25.3982 34.2803 25.3404V25.3116L33.0035 25.456C32.2694 26.0626 32.6844 25.6004 31.9502 26.0337L31.8864 26.2359C31.9502 26.3226 32.0779 26.4093 32.2056 26.3804L32.8759 26.1782C33.0035 26.0915 33.195 26.0626 33.3546 26.0626L33.2908 26.1782L33.1312 26.207H33.0674H33.0035L32.5886 26.3804L32.4928 26.4092H32.3971L32.2056 26.467L32.0779 26.5248L31.9502 26.6115L31.6629 26.727L31.4714 26.8425H31.248C31.1203 26.7848 30.9927 26.7848 30.865 26.8137L30.7054 26.9292L30.5458 27.1314L30.4181 27.3336L30.3862 27.4492L30.2905 27.5647L30.0032 27.8247L29.9394 27.998L29.8755 28.1713L29.7159 28.3447L29.6202 28.518L29.5882 28.6624L29.5563 28.8068L29.5244 28.9224L29.5882 29.1824C29.6202 29.2979 29.5563 29.4135 29.4925 29.4712L29.2372 29.7023C28.7265 30.2801 28.6945 30.9445 28.3753 31.3489L28.2477 31.4355C28.1519 31.4933 28.0881 31.5511 28.12 31.6666C28.12 31.7822 28.0881 31.8977 28.0242 32.0133L27.9285 32.331L27.737 32.5044L27.7051 32.6488V32.7354L27.6731 32.8221L27.7051 32.9377L27.7689 33.0532L27.9285 33.1399L28.0562 33.2554L27.9923 33.4287C27.5135 33.9198 27.2263 33.4576 26.6517 33.2843L25.4388 32.9665C25.2473 32.9377 25.0239 32.9665 24.8962 33.111L24.8005 33.2843L24.7366 33.4576C24.7047 33.5732 24.6409 33.6887 24.5132 33.7754L24.3217 33.8909L24.1621 34.0931L24.0344 34.2376L23.9706 34.4109L23.9068 34.5842L23.8429 34.7575L23.7152 34.8731L23.6195 35.0175L23.5556 35.133L23.4918 35.2486L23.4599 35.3353V35.5086V35.7686L23.3641 36.0285L23.3322 36.173V36.2885L23.3961 36.4041L23.4599 36.5196L23.4918 36.6352L23.4599 36.7507L23.3641 37.0685V37.1551L23.3322 37.2418L23.1407 37.3573L22.9492 37.3862L22.63 37.4151L22.5662 37.444H22.5023H22.4704C22.3747 37.5018 22.2789 37.5018 22.1512 37.5306H21.832H21.6405L21.449 37.5018L20.1085 37.4729L19.9489 37.5018L19.7893 37.444L19.7573 37.4151L19.6616 37.3284L19.5658 37.2418C19.502 37.1262 19.4382 36.9818 19.3105 36.9818C19.1828 36.9818 19.0551 37.0107 18.9594 37.0685L18.7679 37.1262L18.5764 37.1551L18.5444 37.2707C18.6721 37.4151 18.6083 37.5018 18.4168 37.5595L18.3529 37.6173C18.1933 37.5884 18.0657 37.6462 17.9699 37.7329L17.8103 37.704L17.6188 37.444H17.6826L17.7465 37.4151L17.6507 37.0685C17.555 36.9529 17.4273 36.8951 17.2677 36.8951L17.2039 37.0396V37.1262L17.1719 37.184L17.0443 37.1262L16.9166 37.0973L16.757 37.2129L16.8847 37.3862L16.9804 37.444H17.0762L17.1719 37.3573L17.3635 37.3862L17.523 37.4729L17.4273 37.5018H17.3315H17.14L16.9485 37.5306L16.8208 37.6462L16.7251 37.7906L16.5655 37.9062L16.4059 37.9928L16.3421 37.9639H16.2463L16.0229 37.8773L15.9271 37.9928L15.8952 38.1373H16.2782L16.3101 38.0506H16.3421L16.374 38.1373L16.3421 38.195V38.3684V38.5417L16.374 38.6283L16.4059 38.7439L16.5336 39.3216L16.5655 39.3794V39.4372L16.5336 39.5238L16.5017 39.5816L16.4378 39.4661L16.4697 39.3216L16.4059 39.235L16.3101 39.1772L16.1186 39.235V39.1483L16.1506 39.0616L16.1825 38.975L16.2463 38.9172L16.1506 38.8017L16.0548 38.7439L15.959 38.715L15.8633 38.8883L15.8952 39.0616L15.959 39.2061L16.0548 39.3216L16.0229 39.3794L15.8952 39.4083L15.8633 39.4949L15.959 39.6972L16.1186 39.8705L16.1825 40.0438L16.3101 40.1882L16.3421 40.246C16.4059 40.3615 16.4059 40.4771 16.4059 40.5926L16.4697 40.6504L16.5017 40.7082L16.374 40.6504L16.3421 40.7371V40.8526L16.4378 40.9393L16.5974 40.9971L16.7251 40.9393L16.6932 40.8237L16.6293 40.7371H16.757L16.8847 40.9393L16.9804 41.1415V41.1993L16.9485 41.257L16.8208 41.1415L16.6293 41.0837L16.5974 41.1993L16.6612 41.2859L16.757 41.3726L16.9166 41.4015L16.9485 41.3726L17.0124 41.5459C17.0443 41.6903 17.14 41.8059 17.2677 41.8637L17.3954 41.8348L17.4911 41.7481L17.523 41.4592L17.4592 41.1993L17.4273 41.0548L17.3954 40.9104C17.3635 40.7371 17.2996 40.6215 17.14 40.4771L17.0762 40.4193L17.0443 40.3327L17.1719 40.3616L17.2996 40.3327L17.3954 40.2749L17.4592 40.1882L17.555 40.1593L17.5869 40.2171V40.3327L17.6507 40.4193C17.7465 40.4771 17.8422 40.5349 17.938 40.6215L18.1614 40.8815L18.1933 40.9104L18.3529 41.0259L18.5444 41.1126C18.6402 41.1704 18.7998 41.1704 18.8955 41.0837L18.9594 40.9104L18.9275 40.7949V40.7082L18.9913 40.6504L19.119 40.766L19.2147 40.9104C19.2466 41.0548 19.3743 41.1993 19.502 41.2282L19.5978 41.3726L19.6297 41.4592L19.6935 41.517L19.9489 41.5459H20.0765L20.2042 41.5748V41.4881L20.1404 41.4015L20.1085 41.3148L20.0765 41.2282L20.0127 41.1415V41.0837L20.0765 41.0259L20.1404 41.1126L20.2042 41.1993L20.2361 41.4304V41.6615L20.3 41.777L20.3319 41.8925L20.6191 42.0081L20.9702 41.9792L21.066 42.1814L21.0341 42.2681L21.066 42.3547V42.3836L21.4171 42.9036L21.5448 43.0191L21.6725 43.1058L21.8001 43.1924L21.8959 43.308C21.9597 43.3947 22.0555 43.4524 22.1512 43.4813L22.63 43.5102L22.7577 43.4235L22.8534 43.2791L22.9173 43.1924L22.9811 43.2213L23.013 43.2791L23.0449 43.5391L23.1088 43.7702C23.1088 43.8857 23.2045 43.9724 23.2684 44.0302L23.4918 44.2613C23.6833 44.4057 23.8748 44.5212 24.0663 44.6079L24.2898 44.6946L24.5132 44.7812L26.3326 45.359V45.3301L26.5241 45.2723C26.6517 45.1568 26.8433 45.1279 27.0029 45.1279L27.3859 45.3301L28.3753 45.9945L28.6307 46.1967L28.886 46.3989L29.0137 46.4566H29.1733H29.3329L29.4925 46.4855C29.6202 46.5144 29.7478 46.4855 29.8436 46.4566L30.0032 46.3989L30.1947 46.37L30.3862 46.2833L30.6096 46.1967C30.7373 46.1967 30.865 46.1389 30.9607 46.11L31.3119 45.9656C31.3757 45.9078 31.4714 45.8789 31.5991 45.8789C31.7906 45.9078 31.9821 45.9656 32.1417 45.8789H32.3013L32.4928 45.9078C32.9716 45.9656 33.0035 45.85 33.3546 45.6478L33.4823 45.5612L33.5781 45.4167L33.61 45.2434V45.1856L33.5781 45.1279L33.61 45.0123L31.7587 42.7014L31.5991 42.297L31.4076 41.8348L31.2799 41.8637L31.1842 41.8059L31.0565 41.777L30.8331 41.8059H30.5458L30.2585 41.8348V41.6903L30.2905 41.6326L30.3224 41.5459L30.5458 41.3726L30.6735 41.3148L30.8012 41.2859L30.9927 41.1126V41.0259L31.0246 40.9104V40.7082L30.9927 40.4771L30.9607 40.2171V40.1882L30.9288 39.9282C30.2905 39.0616 30.1947 39.1483 30.1947 38.0795L30.2905 37.9928L30.2585 37.9351L30.3543 37.8773L30.482 37.8484L30.6416 37.704L30.7054 37.6462L30.7373 37.5595H30.8331L30.9288 37.5306V37.4729L30.865 37.3862L30.7373 37.4151L30.6735 37.444H30.6096L30.5458 37.4151L30.5139 37.3573L30.4181 37.3284L30.3862 37.3862V37.5018L30.2905 37.5884L30.2585 37.5018C30.6096 36.7796 30.3543 37.2418 30.0032 36.5774L29.9713 36.4618H30.0989L30.1947 36.4907L30.2266 36.3752L29.9713 36.2596L29.8755 36.1152V35.9997L29.9394 35.9708L29.9713 35.913V35.8263L29.9394 35.7397L29.9074 35.5375L29.8436 35.4508L29.7478 35.4219L29.6521 35.393L29.6202 35.4219L29.4925 35.4508L29.3648 35.5086L29.1414 35.4797L29.2052 35.3641L29.3329 35.2486H29.5244L29.684 35.1619V35.0175L29.6202 34.8731L29.1733 34.4109L29.0137 34.2376L28.9499 34.1798L28.8541 34.122L28.6626 33.9487L28.6307 33.8909L28.5669 33.8331V33.7465C28.886 32.8799 28.2796 33.2554 28.4392 32.4755L28.503 32.3599L28.6307 32.2733C28.7264 32.2444 28.8541 32.2444 28.9499 32.2444H29.1095L29.301 32.2155C29.4287 32.1866 29.5563 32.0999 29.5882 31.9844L29.6202 31.84C29.5882 31.7244 29.5882 31.6089 29.6202 31.5222L29.7159 31.2044L29.7478 31.1467L29.9394 31.2044H30.1628L30.3543 31.2333H30.5458L30.6735 31.1178L30.7054 31.0022L30.8012 30.9156L30.3224 30.0201V29.8179L30.2585 29.6446V29.529L30.2905 29.4135L30.4181 29.2979L30.6096 29.2113C30.7692 29.1246 30.9288 29.0668 31.0884 29.0379H31.2799H31.4714C31.631 29.0379 31.7906 29.0668 31.8545 29.2113L31.9502 29.2979L31.9821 29.4135L32.0779 29.5868L32.1417 29.7601L32.1736 29.8179V29.9045V29.9912L31.9821 30.8867L32.046 31.0022L32.1417 31.1178H32.1736L32.3652 31.1756L32.2056 31.3778V31.4933L32.2375 31.6089L32.1736 31.7822L32.046 31.9266L31.9183 31.9555L31.7906 31.9844L31.6629 32.0711L31.5353 32.1288L31.248 32.0999L30.9927 31.7533C30.8969 31.6377 30.7692 31.58 30.6096 31.58L30.482 31.6666V31.7822C30.7054 32.2155 30.6416 32.6488 30.5777 33.111L30.5139 33.1687L30.3543 33.0821L30.1947 32.9954L30.067 33.0243L29.9713 33.111L29.9394 33.3132L30.0351 33.4865C30.067 33.5732 30.1309 33.6887 30.2585 33.7176H30.4181L30.5458 33.7465L30.6416 33.9198L30.6735 33.9487H30.9288L30.9927 33.9198H31.0246V34.0065V34.0931L31.0565 34.1509L31.2799 34.2664L31.3119 34.1509L31.248 34.0931L31.1842 34.0065L31.3438 33.9487L31.3757 33.9198L31.5672 33.8043L31.6949 33.6598L31.6629 33.5732L31.5672 33.5154L31.4395 33.4865L31.3438 33.602L31.2799 33.7176L31.1842 33.7465L31.0884 33.7754V33.4576L31.1523 33.1399L31.1842 33.111L31.2161 33.0821L31.4395 33.1976L31.5353 33.1399L31.631 33.0821L31.7268 33.0243L31.8545 32.9665L31.8864 33.0821L31.7906 33.2265L31.631 33.2843V33.371L31.8225 33.4287L31.8864 33.3998L31.9502 33.3421L32.0779 33.371L32.9078 32.8799L33.0674 32.7932L33.1312 32.6488H33.195L33.3866 32.8221L33.5462 32.9377L33.7377 33.0243L33.9611 33.0532L34.2164 33.0243H34.3122H34.4399H34.5995L34.791 33.0821L34.9825 33.111L35.1102 33.2843L35.2059 33.4865C35.2378 33.6309 35.4293 33.6309 35.557 33.6309L35.5889 33.602L35.557 33.4865V33.371L35.6528 33.4287L35.7804 33.4865L35.9081 33.5732L36.0039 33.6598L36.1315 33.6887L36.2273 33.7465L36.2911 33.8331H36.0039L35.94 33.9198L36.0039 34.0931L36.1635 34.2087C36.2592 34.3531 36.3869 34.4687 36.5465 34.5553H36.6422L36.738 34.5264L36.7699 34.5842L36.8018 34.6709V34.7575L36.8657 34.8153L37.1529 34.7864V34.6131L37.0572 34.4398H37.121L37.1849 34.4686L37.0891 34.1798L36.9933 34.122L37.0253 33.9487L37.2168 34.0065L37.2806 34.122L37.3445 34.2087L37.3764 34.3242L37.3125 34.4109V34.4975L37.3764 34.5553L37.4083 34.642L37.3445 34.8153V34.8731L37.3764 34.9019L37.4083 34.9308V34.9886V35.0753L37.4402 35.133L37.5998 35.2486L37.6317 35.393L37.5998 35.4508V35.5086L37.8552 35.5663L38.0147 35.4797L38.0786 35.3064L38.1424 35.2486C38.2063 35.133 38.2382 34.9886 38.1743 34.8731L38.2382 34.7864L38.3658 34.7286C38.9404 34.2087 38.5574 34.5553 38.9085 33.8909V33.862L39.0361 33.7465L39.7383 32.7932L39.9299 32.6777H40.0256L40.1214 32.6199L40.281 32.4466H40.3129L40.4405 32.4177L40.4725 32.4466V32.5044L40.4405 32.6199L40.5363 32.7066H40.6321L40.7278 32.7354H40.8874L41.0151 32.5044V32.4755L41.047 32.331L41.1108 32.1866L41.1747 32.0133L41.2704 31.8688L41.43 31.6955L41.5577 31.4933L41.6535 31.3778L41.7811 31.2622L41.813 31.1756L41.6854 31.1178H41.6215L41.43 31.0022C41.4939 30.8 41.4939 30.5689 41.4619 30.3667L41.5258 30.2512V30.1356L41.2704 29.9334L41.1747 29.9623L41.0789 29.9912H41.0151L40.9193 30.1645V30.309L40.9832 30.3956H41.1108L41.2385 30.3667L41.3662 30.4245L41.3023 30.5112L40.8874 30.6267L40.8236 30.7134L40.7916 30.8L40.7597 30.9156V31.0311L40.8236 31.1178L40.7916 31.2622L40.6959 31.4067L40.4725 31.5511L40.3448 31.6378H40.281L40.249 31.58L40.3129 31.4933H40.3767L40.4405 31.4644L40.3767 31.4067L40.249 31.3489L40.2171 31.2911L40.1533 31.2622H39.7703L39.7064 31.3489C39.2915 31.58 39.6426 31.2622 38.9404 31.4355L38.8127 31.4644C38.685 31.4644 38.4935 31.4644 38.3978 31.5222L38.2382 31.5511H38.1105L38.1424 31.4933L38.1743 31.4355L37.9828 31.3778L37.8871 31.4067L37.7913 31.4644L37.7594 31.5511L37.7275 31.6378L37.6636 31.6666L37.4402 31.6378L37.2168 31.58L37.2487 31.5222L37.3125 31.4644L37.4402 31.3778L37.5998 31.32L37.8871 31.1756L37.8552 31.06V30.9445L37.8871 30.7423L38.2382 30.2223L38.3658 30.0779L38.3978 30.049C38.5574 30.0201 38.7169 30.0201 38.8765 30.049L39.0042 30.1934L39.1638 30.2801L39.2596 30.309L39.3553 30.2801L39.4511 30.1356L39.3872 30.0201V29.9045L39.5787 30.0201L39.7383 30.1934L39.7703 30.2801L39.7383 30.3956L39.6426 30.4245L39.5468 30.4823L39.5149 30.5689L39.483 30.6556C39.3872 30.7134 39.3234 30.8289 39.3553 30.9445L39.3234 31.0022V31.06L39.5149 31.0889L39.7064 31.06L39.7703 30.9445L39.8022 30.8L39.7703 30.7134L39.7064 30.6267L39.7383 30.4534L39.8341 30.5689L39.8979 30.7134L39.9299 30.9156L40.0256 31.0889L40.1852 31.1178L40.3129 31.1467L40.3767 31.1178H40.4725H40.5363L40.6001 31.0889V31.0022L40.6321 30.9156L40.6001 30.7423V30.6267L40.7278 30.5112V30.3956L40.7597 30.2801V30.049C40.7597 29.9334 40.7597 29.8179 40.7916 29.7312L40.8555 29.5579L40.9193 29.5868L40.9832 29.6157L41.2704 29.5579L41.5577 29.5001L41.6215 29.4424L41.6854 29.3846C41.813 29.3557 41.8769 29.2401 41.9088 29.1535L41.845 29.0379L41.6854 29.0091C41.5258 28.9224 41.3023 28.8646 41.1428 28.9802L40.9832 29.1535H40.8874L40.9193 28.9224C41.7492 27.8825 41.6215 28.6913 41.8769 28.0558L41.9407 27.9691C41.9726 27.8536 42.0046 27.7092 42.1642 27.6803L42.5472 27.6225C42.6748 27.5936 42.8025 27.5647 42.9302 27.4781L43.1217 27.3914L43.3132 27.3336L43.5047 27.2759L43.8558 26.9292L44.0473 26.7559L44.1112 26.6692L44.0793 26.5537L43.9835 26.4381C44.0154 26.1204 43.9197 26.1204 43.9197 25.8604V25.7737L44.0473 25.6582ZM31.8545 32.8221V32.9088L31.8225 32.9665L31.5991 32.8799C31.4714 32.9088 31.3757 32.9377 31.2799 32.9954V32.9665C31.2799 32.851 31.2799 32.7354 31.3438 32.6199V32.5332V32.4466L31.3757 32.4755L31.4395 32.5044L31.5991 32.6199L31.7906 32.7066H31.8545H31.9183V32.7643L31.8545 32.8221ZM34.7271 32.9954L34.6314 33.0532H34.5356V32.9665L34.6314 32.8799L34.7591 32.851L34.791 32.8799L34.7591 32.9377L34.7271 32.9954ZM37.121 33.6887L37.0253 33.6309L36.9295 33.5154V33.4576L37.1529 33.5443V33.6309L37.121 33.6887ZM37.9828 34.4975H38.1424L38.302 34.4686H38.3658L38.4297 34.4975L38.3978 34.5264L38.302 34.5842L38.2701 34.642L38.2062 34.6709L38.1105 34.6997L38.0467 34.6709L37.8871 34.5553L37.7275 34.4686L37.6636 34.4109L37.6317 34.3531L37.9828 34.4975ZM37.4402 34.0065L37.5679 34.122L37.6317 34.2376L37.5998 34.2953L37.4402 34.1509L37.2487 34.0353L37.1849 33.9198V33.8043L37.3125 33.8909L37.4402 34.0065Z" fill="#231F20"/>
<path d="M50.6871 37.1262L50.8467 37.2129L50.8148 37.3285L50.751 37.4151L50.5595 37.3862L50.5276 37.2418L50.6871 37.1262ZM51.7085 37.7906C51.6128 37.8484 51.517 37.8773 51.4213 37.9062L51.1021 37.964L50.9106 38.0217L50.751 38.1084L50.5276 38.1951L50.1126 38.455L50.0488 38.5417V38.6572L50.0807 38.715V38.7728L49.9211 38.8594L49.7615 38.9172L49.6657 38.9461L49.6977 38.8017L49.8253 38.6861V38.5417L49.7934 38.3973L49.8892 38.3106L49.953 38.1951L50.0807 38.0795L50.0168 37.9062L49.953 37.8195V37.7329L50.0168 37.6751L50.0488 37.6173L50.1445 37.5307L50.2403 37.5884L50.2084 37.6462V37.704L50.4637 37.7906L50.6552 37.6751L50.8148 37.5307L50.9106 37.5018H51.0063L51.134 37.4729L51.2617 37.4151C51.4213 37.4151 51.5808 37.444 51.7085 37.444L51.7724 37.4729L51.8362 37.5307V37.6751L51.7085 37.7906ZM53.9428 36.5774L53.8152 36.7218L53.6875 36.8085L53.5279 36.7507L53.4321 36.6063L53.3683 36.4907L53.2406 36.433L52.9214 36.4619C52.8257 36.4619 52.698 36.4618 52.6023 36.4041L52.3788 36.3463L52.3469 36.2596L52.2192 36.1441C52.1873 36.0285 52.1235 35.8841 52.2511 35.7975L52.3788 35.7108L52.5065 35.653L52.5384 35.7108L52.6342 35.8263L52.5384 35.913L52.4746 36.0286L52.7618 36.0574C53.2087 36.0574 53.496 35.9419 53.879 36.2308L54.0386 36.3752L54.0067 36.4619L53.9428 36.5774ZM42.899 33.9198L42.8352 33.8909L42.8033 33.9487L42.8671 33.9776L42.899 33.9198ZM64.2525 25.5138C64.1567 25.456 64.0291 25.3982 63.8695 25.3982H63.7418L63.7099 25.2827H63.8056H63.9014L63.9652 25.1671V25.0227L63.9333 24.936L63.9014 24.8494L63.8056 24.7916H63.6779L63.5503 24.8205L63.5184 24.6183L63.5822 24.5316L63.6141 24.4161L63.646 24.3294V24.2428L63.5184 23.9828C63.5503 23.8672 63.5184 23.7806 63.4545 23.665L63.4226 23.6073L63.3588 23.4339L63.3269 23.2606L63.2949 23.174L63.263 23.0873C63.263 22.9717 63.1992 22.8851 63.1353 22.8273L62.9438 22.5673L62.7842 22.5385L62.6246 22.5096L62.5289 22.4229L62.3055 22.0763L62.3374 21.9607L62.4012 21.8741L62.5289 21.7585L62.6885 21.6718V21.4408L62.5927 21.383L62.465 21.3541L62.1778 21.4696H62.114L62.0501 21.4408L62.2097 21.2385C62.3055 20.9208 62.2735 20.7186 61.8586 20.8052L61.7309 20.8919C61.6033 20.8919 61.4756 20.863 61.4117 20.7475L61.3479 20.6608L61.316 20.5453L61.1564 20.4297L61.0606 20.2564L61.0926 20.0542V19.852L60.9968 19.7653L60.8691 19.7364L60.7095 19.592L60.518 19.332L60.3265 19.072L60.1669 18.9565L59.9754 18.9276H59.8797L59.752 18.841L59.7201 18.6965L59.752 18.6099V18.5232L59.7201 18.3788V18.2921L59.6881 18.2343L59.5924 18.1766L59.5285 18.0899L58.8902 17.31L58.7944 17.2522L58.7306 17.1655L58.6668 17.0211L58.6987 16.8767H58.8583L59.0179 16.8189L59.0498 16.6456L58.954 16.53L58.8264 16.4722L58.6987 16.5878L58.6668 16.7322H58.6348L58.4433 16.3856L58.3476 16.2411V16.1834L58.3795 16.0678L58.3156 15.9812L58.2837 15.8656L58.1561 15.6634L57.9007 15.519L57.6773 15.3457L57.5496 15.3168C57.4219 15.3168 57.3262 15.3457 57.2623 15.4323L57.1027 15.3457C56.7197 14.8546 56.209 14.1613 55.6345 13.8724L55.3791 13.988L55.443 14.1902L55.6026 14.3635L55.7622 14.5946L55.9537 14.7968V14.8835L56.0175 14.9412L56.0814 14.999L56.1133 15.0857L56.0175 15.1146L55.8899 15.0568L55.826 15.0857H55.7622L55.6664 14.9412L55.6345 14.7679L55.3791 14.5946L55.2834 14.5368L55.3472 14.4213C55.1876 14.0458 55.0919 14.0746 54.8046 14.3057L54.7408 14.3924L54.8365 14.4791L54.9642 14.5079H55.028L55.0919 14.5368L55.06 14.5946H54.9961L54.7408 14.5079H54.5493L54.3897 14.5946L54.3578 14.6813V14.7679L54.262 14.8546L54.1982 14.739L54.1343 14.6235L54.0067 14.4791C53.879 14.5079 53.8151 14.6524 53.7832 14.7679L53.879 14.999L53.9747 15.2012C53.9747 15.2012 54.3897 15.1723 54.5493 15.1435L54.5812 15.0857H54.677L54.8365 15.0568L55.028 15.0857L55.2196 15.1146H55.4111L55.5068 15.1723L55.5707 15.259L55.7622 15.3745L55.7941 15.3457V15.2879L55.826 15.2301L55.8899 15.2879L55.9537 15.3457L55.9856 15.4034V15.4901L56.0814 15.6056L56.209 15.7501L56.3367 15.9234L56.4325 16.1545L56.4644 16.1834L56.4325 16.3278L56.4005 16.5011L56.3686 16.5589L58.8264 19.1298L59.0817 19.3898L59.1455 19.4765L59.1775 19.5631L59.5605 19.9675L59.6243 20.0831L59.5924 20.1697L59.5605 20.2275V20.3719L59.6243 20.4875L59.752 20.5164L59.8477 20.4586L60.0393 20.5453C60.4861 20.9786 60.9968 21.7585 61.316 22.3074V22.4229L61.1883 22.4807H61.0606C60.9649 22.4807 60.901 22.5096 60.8691 22.6251L60.8372 22.7984L60.8053 22.9718C60.7095 23.0295 60.6138 23.0873 60.6138 23.2028L60.6776 23.3473L60.8053 23.4051L60.9649 23.4339C61.0926 23.5206 61.1883 23.5784 61.3479 23.5206L61.6671 23.665C61.7309 23.7806 61.8586 23.8672 61.9863 23.925L62.2416 24.0694L62.4331 24.2717L62.5608 24.5316L62.6885 24.7916L62.7204 24.9072L62.7842 25.0227L62.88 25.3116L62.9758 25.6004L63.0077 25.7738L62.9119 25.9471L62.88 26.1204L62.9758 26.5248C62.8481 26.6115 62.6885 26.6981 62.6566 26.8715L62.465 27.1026L62.3693 27.2759L62.3055 27.4492L61.8905 27.8536H61.5075H61.3798L61.2841 27.7958V27.7092L61.316 27.6225L61.3479 27.4492L61.3798 27.2759L61.4756 27.1026C61.5713 27.0159 61.6671 26.9292 61.6671 26.8137L61.6032 26.6115L61.699 26.5537L61.7628 26.467L61.6352 26.2648L61.4756 26.1782L61.3479 26.0337L61.1883 25.9182L61.1245 25.8893L61.0606 25.8604C60.9011 25.7738 60.6776 25.7449 60.4861 25.7449L60.3265 25.7738L60.0712 25.9471L59.8477 26.1493L59.7201 26.2648L59.5605 26.4959C59.4966 26.5826 59.4328 26.6404 59.337 26.6404L59.1455 26.5248L59.0817 26.4382L58.9859 26.3515L58.8583 26.2937L58.7625 26.1782L58.7306 26.1493V26.0915L58.7944 26.0049L58.8902 25.9182L58.954 25.976V26.0626V26.1493L59.0179 26.2648L59.1136 26.3226H59.337L59.5285 26.2071L59.5605 26.1204L59.5285 26.0049L59.2413 25.8027C59.1455 25.7449 59.0498 25.716 58.9221 25.7738L58.8264 25.716L58.7944 25.6293L58.6668 25.5138L58.5391 25.4849L58.4752 25.4271L58.4114 25.3693L58.3795 25.2827V25.196L58.2837 25.0227L58.1561 24.8783C57.9965 24.7338 57.805 24.6183 57.5815 24.5316L57.2943 24.4739L57.007 24.4161L56.9112 24.3583L56.7836 24.3294L56.7197 24.3005H56.6559L56.5601 24.2717L55.5387 24.5894L55.5068 24.705L55.443 24.7338H55.3472H55.2515L55.06 24.9072L54.9961 25.0805L54.9642 25.1383L54.7727 25.0805L54.5812 25.0516L54.4854 25.0805L54.4216 25.1383L54.4535 25.2827L54.4854 25.4271C54.5493 25.6004 54.645 25.7449 54.7727 25.8893L54.7089 25.9471L54.5174 25.9182L54.3578 25.8315L54.1982 25.716L54.0067 25.6293L54.0705 25.6004H54.1662L54.262 25.5427L54.3578 25.4849V25.4271L54.1662 25.2827L54.0705 25.1383L54.0386 24.9649L54.1343 24.9072L54.2939 24.7916L54.3258 24.5894L54.4535 24.4739L54.5493 24.3872L54.5812 24.2717L54.4535 24.0694L54.262 23.925L54.2301 23.8961C54.0705 23.8672 53.8471 23.8384 53.7194 23.9828L53.5917 24.0694C53.3045 24.3872 53.3683 24.4161 52.8895 24.4739H52.698C52.6342 24.3583 52.6661 24.1561 52.7299 24.0694L53.1449 23.7228V23.6939H53.2725C53.8151 23.6073 53.9428 23.8672 53.879 23.2895L53.9428 23.2028L53.081 22.5962L52.9853 22.5385H52.8895L52.7618 22.5673L52.7299 22.4518L52.7938 22.394V22.3074L52.698 22.2785C52.1873 22.394 51.9958 22.7984 51.6766 22.8851L51.4213 23.1162L51.4532 23.2028L51.5489 23.2317L51.7405 23.2895L51.8043 23.3473L51.9 23.3762L52.0915 23.2895L52.2831 23.2317L52.3788 23.2606L52.3469 23.4051L52.1873 23.5206L52.0596 23.665L51.9958 23.7228L51.7405 23.9539L51.6128 24.0117L51.517 24.0983L51.4213 24.185L51.2297 24.2139L51.0382 24.2428L50.751 24.3872L50.3041 24.6761L50.0168 24.936L49.8892 24.9938L49.7934 25.0805L49.7615 25.196L49.7296 25.2538L49.7615 25.3116L49.7934 25.3982V25.456L49.6338 25.5138L49.5062 25.5716L49.3785 25.6004L49.2508 25.6293L49.0274 25.6582L48.8359 25.6004C48.8039 25.456 48.6763 25.3116 48.5167 25.2827L48.3571 25.196C47.591 24.5894 47.6549 25.196 47.0165 25.2538L46.7931 25.196V25.0805L46.8888 25.0227L46.9846 24.936C47.6868 24.3872 48.2932 24.7627 48.3571 23.6361L48.2933 23.5495L48.2294 23.4917L48.1337 23.4339L47.9102 23.4917L47.7506 23.6073L47.7187 23.6361L47.591 23.6939L47.4634 23.7228L47.2719 23.8672L47.0165 24.0406L46.825 24.2717L46.7931 24.3294V24.3872L46.7612 24.5027L46.6973 24.5605L46.5058 24.5316L46.3462 24.5027L46.0909 24.445L45.8036 24.3872L45.644 24.3583L45.5163 24.2717L45.1014 24.3005L44.9099 24.7916L44.8141 25.0516V25.1383L44.8461 25.2249L44.878 25.3982L44.9418 25.4849H45.1014L45.261 25.456L45.3568 25.5138L45.2929 25.5716L45.2291 25.6293L44.7822 25.5716L44.5907 25.5138C44.4311 25.5138 44.1439 25.6004 44.08 25.7449V25.9182L44.1438 26.0626V26.0915V26.1204L44.3034 26.2648L44.463 26.3804L44.6226 26.4959L44.7822 26.5826L44.8461 26.7559L44.9737 26.8715C45.1014 26.9292 45.2291 26.9003 45.3248 26.8137L45.4525 26.8426L45.5802 26.9003L45.7079 26.9581L45.8355 26.987L46.0909 26.9581L46.2505 27.0448L46.3462 27.2181L46.6973 27.4492L46.8888 27.6514L47.0165 27.8825L47.208 28.0269H47.3995L47.591 28.0558L47.6868 28.0269H47.7826L47.7506 28.1425L47.6868 28.2291L47.623 28.4313L47.6549 28.5758L47.623 28.6624L47.6549 28.7491L47.6868 28.8358L47.7826 28.9224L47.9102 29.0091V29.1246V29.2402L47.8145 29.3557L47.6868 29.4135C47.591 29.4424 47.5272 29.4713 47.5591 29.5868V29.6735C47.4953 29.789 47.4315 29.8468 47.3357 29.9335V29.9912L47.3676 30.049L47.4315 30.1645L47.4953 30.1934H47.591L47.6868 30.1645L47.7826 30.2512L47.8464 30.3379L48.1017 30.8578L48.1975 30.9734L48.3252 31.0311L48.4209 31.0023L48.4848 30.9445L48.5486 30.8001L48.6124 30.8289L48.5486 30.9156L48.5167 31.0889L48.4529 31.1467L48.3252 31.2045L48.2294 31.2911L48.2933 31.3778L48.4209 31.4067L48.6763 31.3489L48.9316 31.2911C49.0912 31.2622 49.2508 31.2045 49.3785 31.0889H49.4104H49.5062L49.5381 31.2045L49.4423 31.2911L49.4104 31.4067L49.5062 31.4933L49.6657 31.5511L49.6019 31.58H49.5381C49.4104 31.58 49.2827 31.58 49.187 31.5511L48.8359 31.5222L48.6763 31.5511L48.5167 31.5222L48.2933 31.5511L48.1975 31.6378C48.1656 31.8689 48.389 32.0422 48.5805 32.1288L48.6444 32.1866L48.6763 32.2733L48.5167 32.5044L48.5486 32.6488L48.5167 32.7643V32.8799L48.4848 32.9954C48.3571 33.0821 48.2613 33.1976 48.2613 33.3421L48.2294 33.4576L48.1656 33.5443L48.1337 33.6021H47.9741L47.8145 33.5732C47.5591 33.6598 47.2399 33.6598 47.0165 33.5443H46.9846H46.8569L46.6973 33.5732L46.5058 33.7176L46.3782 33.8909L46.2186 34.1509L46.2505 34.2376L46.1866 34.382L46.1228 34.5264C46.0909 34.902 45.9632 35.3353 45.6121 35.5664L45.5802 35.7397L45.5163 35.8841L45.6759 35.9708L46.2186 36.3174L46.2505 36.2019L46.3462 36.0863H46.4101L46.4739 36.1152L46.5377 36.2308L46.6016 36.3463L46.6335 36.4619L46.7292 36.5485L46.7612 36.6641L46.8569 36.7507L47.1123 36.8085L47.208 36.7218L47.2399 36.6063L47.2719 36.3463L47.3357 36.2308L47.3676 36.1152L47.3038 36.0286L47.1761 35.913V35.7975L47.1123 35.7108V35.393L47.1442 35.1331V35.0175L47.208 34.9308L47.4315 35.0753L47.3995 35.2197V35.3642L47.3676 35.4508V35.5375V35.6241V35.6819L47.3995 35.8263L47.4953 35.9419L47.6868 35.9708L47.8464 36.0286V36.0574L47.7826 36.1152L47.6868 36.173L47.4315 36.2885L47.4634 36.433L47.591 36.5485V36.6352V36.6929L47.3995 36.8374L47.3357 36.8952L47.2719 36.9529L47.1442 37.0685L46.9846 37.0396L46.8888 37.0107H46.7931L46.6654 36.9818L46.5697 36.924V36.8663V36.8085C46.442 36.6929 46.3462 36.5774 46.3462 36.433L46.1547 36.3752L45.8994 36.7218C45.9313 36.8374 45.9951 37.0107 45.9313 37.1262L45.7717 37.2129L45.7398 37.2418V37.3573L45.7717 37.4151L45.8036 37.4729H45.7079L45.6121 37.444L45.5163 37.4729L45.4525 37.4151L45.3887 37.2418L45.3248 37.2129L45.261 37.184L45.2291 37.1262L45.261 37.0396V36.924L45.1972 36.8663L45.1652 36.7796L44.5907 36.8663L44.6226 36.9818L44.6865 37.0974L44.7184 37.1551L44.7503 37.2129V37.2418L44.6545 37.2707H44.5588L44.463 37.2129H44.3992L44.3673 37.2418V37.2996L44.3034 37.3862L44.2715 37.2996C44.3354 36.8085 43.5693 37.0685 43.7927 37.3285L43.8247 37.3862L43.6332 37.6173L43.697 37.7618L43.8566 37.8484H43.9843L44.08 37.7906L44.1758 37.6462L44.2396 37.4729L44.3354 37.5307L44.4311 37.5884L44.495 37.6751V37.7618L44.3992 37.8195L44.3034 37.8484L44.2077 37.9351L44.1758 38.0506L44.2396 38.1373L44.3354 38.1951L44.495 38.1373H44.6865L44.7503 38.0795L44.8141 37.9928L44.9099 37.964L44.9737 37.9062L45.1333 37.8773L45.2929 37.8484L45.4206 37.7618L45.4525 37.704L45.5163 37.8195L45.4844 37.9351L45.2929 37.9928L44.9737 38.1084L44.9418 38.1951L44.878 38.2528L44.5907 38.2239L44.3673 38.3106L44.3354 38.4839L44.3673 38.5995L44.5269 38.715L44.6226 38.6861C44.7184 38.7728 44.7822 38.9172 44.7184 39.0328L44.5269 39.1772L44.0162 39.1483H43.8566L43.7289 39.2061L43.6332 39.2927L43.5693 39.3794C43.5693 39.4949 43.5374 39.5527 43.5055 39.6394V39.6683L43.4736 39.7549V39.8416L43.4416 39.986L43.4736 40.1305L43.4416 40.2749L43.4097 40.4193L43.4416 40.5349L43.5374 40.6215L43.697 40.6793L43.8247 40.766L43.8566 40.8815H44.1119L44.1438 40.8526L44.3354 40.7949L44.5269 40.7371L44.5588 40.6793V40.5926C44.6865 40.5349 44.8141 40.4771 44.9737 40.5349H45.1014L45.1972 40.4771V40.3904L45.2291 40.3038L45.3248 40.246L45.3887 40.1593L45.4525 40.0438L45.5483 39.9283L45.7079 39.8705L45.8355 39.7549L45.7717 39.6394V39.5816L45.8674 39.495H46.027L46.1866 39.4661L46.4101 39.2927L46.6973 39.1772L46.825 39.1483L46.9207 39.235C47.2719 39.8127 47.3357 39.1483 48.1337 39.9283L48.2933 40.0438C48.389 39.986 48.389 39.8416 48.3571 39.7549L48.3252 39.6394V39.6105L48.4209 39.5816L48.4848 39.5238L48.3252 39.4083L48.1975 39.2927H48.1017L48.0379 39.3216L47.9421 39.2639L47.8145 39.2061L47.7506 39.1772L47.6868 39.1194L47.5591 39.0617L47.4634 38.975L47.5272 38.8594L47.7826 38.8883L48.0379 38.9172L48.2613 39.0039L48.4848 39.1194L48.5486 39.2061L48.5167 39.2927L48.5486 39.3794L48.6124 39.495L48.6763 39.6105L48.7401 39.6683H48.8359L48.9316 39.6394L48.9635 39.6683L48.8997 39.7549L49.0274 39.8994L49.2189 39.9571L49.4423 39.8416H49.57L49.6977 39.8127L49.7296 39.726V39.6394V39.5238C49.6658 39.4083 49.5381 39.3505 49.4423 39.3216L49.4104 39.235L49.4742 39.1772L49.5062 39.0905C49.6338 39.0616 49.7296 39.1194 49.7934 39.1772L50.0168 39.4083L50.3041 39.495L50.4956 39.4661L50.6552 39.3505L50.8148 39.3216L50.9106 39.2061L50.9425 39.1483L50.9744 39.0617L51.134 38.9461L51.3893 38.8883L51.517 38.8017L51.6766 38.7439L51.8043 38.8306L51.8681 38.975C51.9 39.1194 51.9 39.235 51.8362 39.3794V39.5527L51.7405 39.6683L51.517 39.8127L51.2936 39.9283C51.1659 40.0727 50.9744 40.1305 50.751 40.1305C50.5914 40.2171 50.3999 40.246 50.2403 40.2749L50.1445 40.3327H50.0168C49.6977 40.3327 49.3785 40.4193 49.187 40.6793L49.1231 40.7949L48.8997 40.9682C48.3252 41.0548 48.5486 40.9682 48.1656 40.8815L47.8783 40.9104L47.591 40.8815L47.5591 40.7949C47.3676 40.3327 47.2399 40.1016 46.6335 40.3616L46.3782 40.3904C46.2505 40.3904 46.0909 40.3904 45.9313 40.3616L45.7717 40.3904L45.644 40.4193L45.3568 40.4771C45.1333 40.506 44.9737 40.6504 44.8461 40.7949V40.8237L44.7822 40.8526H44.7184L44.5907 40.9104L44.463 40.9393L44.3354 40.9682L44.2077 40.9393L43.8885 40.9104L43.6012 40.8815L43.1863 41.1704L43.0586 41.2859L42.8671 41.3726L41.5265 42.037L41.4946 42.1236L41.3989 42.1814L41.2393 42.297L41.0478 42.4125L40.9839 42.4992L40.9201 42.5569L40.7924 42.6725C40.7286 42.788 40.6647 42.9036 40.6647 43.0191L40.6328 43.1347L40.6009 43.2213L40.5371 43.3947L40.5051 43.568L40.3775 43.6546L40.2179 43.6835C40.1221 43.7124 40.0264 43.7702 40.0264 43.8857L40.154 44.2324L40.3456 44.5501L40.569 44.8968L40.9839 45.3012L41.0478 45.4456L41.1435 45.59L41.4308 45.85L41.5584 45.9945L41.718 46.0811C42.516 46.4567 41.6861 46.3989 43.0586 46.4855H43.2182L43.3778 46.5144C43.5374 46.5144 43.697 46.5144 43.8566 46.5722L44.6226 46.6589L44.6865 46.6877L44.7184 46.7166L45.7398 46.4278C45.8675 46.3989 45.9632 46.3989 46.0909 46.3989L46.4739 46.4278L46.6654 46.4855L46.8569 46.5433L47.208 46.4566H47.2719H47.3357L47.3038 46.5144L47.2399 46.5722L47.2719 46.6589H47.3995L47.5272 46.63L47.5591 46.5722L47.591 46.5433L47.6549 46.6589V46.7744L47.623 46.8611V46.9477L48.7401 47.8432L48.8997 47.9299L49.0593 47.9876L49.155 48.0743L49.2189 48.1321L49.2508 48.3343L49.4742 48.5076L49.6019 48.7387L49.6657 48.8542L49.7615 48.9409L49.8253 49.1142L49.6977 49.432L49.6019 49.5764L49.57 49.8942L49.6657 50.1253L49.7615 50.3564L49.8892 50.4719L49.953 50.5297L50.0168 50.5875C50.0168 50.703 50.0807 50.7608 50.1445 50.8185L50.3999 50.963L50.5595 51.0208L50.7191 51.0496L50.9425 51.1941L51.1021 51.3963C51.2298 51.4541 51.3574 51.5118 51.4213 51.6563L51.5489 51.7718L51.6766 51.8874V51.9162L52.6661 52.6962L52.7299 52.7251L52.7938 52.7828L52.8895 52.754L52.9853 52.7828L53.2087 52.9273L53.464 52.985L53.5598 53.0139L53.6556 52.985H53.8471L54.1024 52.8406L54.3578 52.754L54.4216 52.7251L54.5493 52.6095L54.7408 52.5517L55.1238 52.4073L55.3153 52.3784L55.4749 52.2629L55.5707 52.1473L55.6983 52.0607L55.9218 51.974C56.2409 51.9162 56.3048 51.7429 56.5282 51.5696L56.7517 51.4541L56.9751 51.3096L57.7411 50.9341C57.8688 50.9052 57.9645 50.8185 58.0603 50.7319L58.3476 50.4719L58.6668 49.0853L58.6348 48.7676L58.7306 48.5943L58.8902 48.4498L58.9859 48.161C58.9859 48.0454 58.9859 47.9588 58.9221 47.8721L58.8264 47.7565C58.7944 47.641 58.7306 47.5255 58.6029 47.4677L58.6987 47.2366C59.0179 46.89 59.3051 46.4855 59.6243 46.1389L59.7201 46.0233C59.7839 45.9078 59.7839 45.7634 59.6881 45.6767L59.5285 45.5034C58.9221 44.6946 58.9859 45.0123 58.3476 44.6079L58.1561 44.4057C57.9645 44.2324 58.0284 43.9724 58.0922 43.7702L58.1561 43.6258C58.5072 43.1636 58.954 41.6326 58.6668 40.8815L58.6348 40.7949C58.6029 40.6793 58.571 40.5349 58.5072 40.4193L58.4752 40.246L58.4114 40.0727C58.3795 39.9571 58.2837 39.8705 58.2199 39.7838L57.9326 39.7549L57.773 39.9571L57.6134 40.1305L57.5815 40.2171L57.5177 40.3038L57.39 40.4771L57.2304 40.6504L57.1347 40.8237L57.1666 40.9104L57.1347 41.0259L57.1027 41.1415L57.007 41.1993L56.9112 41.2282L56.624 41.1993L56.3686 41.2282C55.5707 41.517 54.5174 41.0259 53.7194 40.8526L53.496 40.766L53.3044 40.7371C53.1768 40.7082 53.0491 40.6504 52.9214 40.5638L52.7299 40.5349L52.5703 40.4482H52.2511L51.9639 40.3904L51.932 40.3038L51.9958 40.246L52.0596 40.1882L52.4107 40.1593L52.6023 40.2171L52.6342 40.1593L52.5065 40.0727L52.4427 39.9283L52.5703 39.8416L52.6023 39.9283C52.6342 40.0438 52.7299 40.1593 52.8576 40.246L53.1768 40.3327L53.496 40.3904L53.8152 40.4771L54.1343 40.5926C54.2301 40.6504 54.3578 40.6793 54.4854 40.6793H54.677C55.6345 40.766 55.9856 41.3437 56.8793 40.9971L56.9751 40.9682L57.0389 40.8237L57.007 40.6793L57.0708 40.5349L57.1985 40.4193L57.2943 40.3038L57.39 40.1882V40.0149L57.4538 39.8416L57.5177 39.7549L57.5815 39.6683V39.6394L57.6134 39.4372V39.235L57.6454 39.0328L57.6773 38.8306L57.7411 38.7439L57.805 38.6572L57.8688 38.5417L57.9646 38.4261V38.3684L57.9007 38.1662L57.9326 37.9928V37.8195V37.6462V37.5595L57.9007 37.4729C57.773 37.3862 57.7092 37.2996 57.6773 37.1551L57.6454 37.0685L57.5815 37.0107L57.4219 36.924H57.2304L56.9751 37.0107L56.7517 37.0685L56.5921 37.0974L56.4644 37.184L56.4325 37.2707L56.3686 37.3573L56.2729 37.5307C56.2729 37.704 56.1452 37.8773 55.9856 37.9928L55.7622 37.964L55.5387 37.9928L55.443 38.0795L55.3472 38.1373H54.9961L54.7089 38.0217L54.6131 37.9351L54.677 37.8773L54.7408 37.8195L54.8685 37.7329H55.06H55.2834H55.5068C55.6345 37.704 55.7941 37.6462 55.8899 37.5595L55.9856 37.3862L56.0494 37.2129L56.1133 37.1551L56.1771 37.0685L56.2729 37.0107L56.7197 36.9529L56.9751 36.7507L57.1666 36.5196L57.2623 36.3463L57.3581 36.173L57.4858 36.0286L57.5177 35.9708V35.913V35.8552L57.5815 35.7686L57.805 35.5664C57.8688 35.5086 57.9326 35.4219 57.9326 35.3353L57.9965 35.1619L58.0284 34.9886L58.0603 34.8731L58.0922 34.7575L58.188 34.7286L58.2199 34.9308V35.0464L58.2518 35.1619V35.2197L58.2837 35.2775L58.4114 35.3064L58.5391 35.3353H58.6348L58.7306 35.3064H58.8264L58.9221 35.2486L58.9859 35.1619L59.0179 35.0753L59.0498 34.9886V34.902L59.1455 34.8153H59.2732L59.4009 34.8442C59.5605 34.9597 59.7839 34.9597 59.9754 34.9308L60.2627 34.8153L60.5499 34.6709L60.9649 34.6131L61.3479 34.4975L61.699 34.4398L62.082 34.382L62.1778 34.2953L62.114 34.0931L61.9863 33.8909L61.9224 33.7176L61.8267 33.6309L61.6032 33.4576L61.4117 33.2843L61.2522 33.1976L61.1245 33.0821L60.933 32.9954H60.8053L60.7095 32.9666C60.6138 32.8799 60.5499 32.7932 60.5499 32.6777V32.5621L60.518 32.4466L60.4542 32.3022L60.3265 32.1866C60.2308 32.1 60.1669 32.0422 60.1669 31.9266L60.135 31.7533L60.0393 31.6089L60.0073 31.5222L59.9754 31.4356L59.8158 31.32L59.6881 31.1756V31.1178L59.6562 31.06V31.0023L59.8158 30.0779V29.9912C59.9116 29.9335 60.0392 29.9046 60.1669 29.8757C60.2627 29.789 60.3584 29.7312 60.518 29.7024L60.8053 29.5579C60.901 29.5001 60.9649 29.4424 60.9649 29.3268C60.8372 29.1824 60.8053 29.038 60.8053 28.8646L60.9011 28.7491C61.2841 28.5758 61.2521 28.6335 61.6032 28.5758L61.699 28.518C61.8267 28.5469 61.9224 28.518 62.0501 28.518L62.4012 28.4891L62.5289 28.4313L62.5927 28.3158L62.6566 28.1714L62.9119 27.8247C63.1353 27.7381 63.3268 27.5359 63.4226 27.3625L63.5503 27.1603L63.646 26.9581L63.7099 26.6981L63.8056 26.5826L63.8375 26.467L63.8056 26.4382L63.8375 26.3515L63.9014 26.2648C63.9014 26.1493 63.8695 26.0049 63.9971 25.9471L64.1567 25.9182L64.2844 25.8604L64.3482 25.7738L64.2525 25.5138Z" fill="#231F20"/>
<path d="M45.0996 2V25.0516" stroke="#231F20" stroke-width="2.9922"/>
<path d="M45.0996 42.2103V59.0802" stroke="#231F20" stroke-width="2.9922"/>
<path d="M58.6016 42.4992L67.6983 50.7319" stroke="#231F20" stroke-width="2.8242"/>
<path d="M22.7568 10.3483L40.5354 26.4382" stroke="#231F20" stroke-width="2.8242"/>
<path d="M49.5684 26.4381L67.315 10.3771" stroke="#231F20" stroke-width="2.8242"/>
<path d="M22.5977 50.6163L40.9189 34.0065" stroke="#231F20" stroke-width="2.8242"/>
<path d="M13.3096 30.4246H36.5782" stroke="#231F20" stroke-width="2.6601"/>
<path d="M58.7617 30.3956H76.7957" stroke="#231F20" stroke-width="2.6601"/>
<path d="M45.0997 59.1379C62.4953 59.1379 76.7948 46.2256 76.7948 30.4823C76.7948 14.739 62.4634 2 45.0997 2C27.7041 2 13.3408 14.739 13.3408 30.4823C13.3408 46.2256 27.7041 59.1379 45.0997 59.1379Z" stroke="#231F20" stroke-width="2.9922"/>
<path d="M57.4526 10.6371C53.782 8.78838 49.5368 7.71957 45.0682 7.71957C31.1518 7.71957 19.6611 17.9166 19.6611 30.5112C19.6611 43.1058 31.1518 53.4184 45.0682 53.4184C58.9847 53.4184 70.4434 43.1058 70.4434 30.5112C70.4434 26.987 69.5497 23.6362 67.9538 20.6608" stroke="#231F20" stroke-width="2.9922"/>
<path d="M63.3903 25.8893C61.1241 18.6965 53.7509 13.4391 45.069 13.4391C34.6317 13.4391 26.0137 21.0941 26.0137 30.5401C26.0137 32.2444 26.3009 33.862 26.8116 35.4219" stroke="#231F20" stroke-width="2.9922"/>
<path d="M31.4707 42.528C34.9498 45.7345 39.7695 47.7276 45.068 47.7276C55.5053 47.7276 64.0914 39.986 64.0914 30.54C64.0914 29.529 63.9957 28.5469 63.8041 27.5936" stroke="#231F20" stroke-width="2.9922"/>
<path d="M56.0487 36.1441C57.102 34.4975 57.6765 32.5621 57.6765 30.5401C57.6765 24.2428 51.9631 19.1587 45.0049 19.1587C38.717 19.1587 33.4185 23.3184 32.4609 28.778" stroke="#231F20" stroke-width="2.9922"/>
<path d="M32.5244 32.6777C33.6416 37.964 38.8443 42.0081 45.0046 42.0081C46.9197 42.0081 48.7709 41.6037 50.3988 40.9104" stroke="#231F20" stroke-width="2.9922"/>
<path d="M46.8244 24.965C46.2499 24.8205 45.6754 24.7339 45.0689 24.7339C44.3029 24.7339 43.5687 24.8494 42.8984 25.0805" stroke="#231F20" stroke-width="2.9922"/>
<path d="M39.291 33.1976C40.3762 35.1042 42.5786 36.4041 45.0683 36.4041C45.4513 36.4041 45.8343 36.3752 46.2173 36.3174" stroke="#231F20" stroke-width="2.9922"/>
<path d="M89.7868 79.9653L89.5314 77.8276H89.308C89.2761 77.9432 89.2441 78.1743 88.925 78.1743L88.6696 78.1165L88.3185 78.001C88.0632 77.9143 87.744 77.8276 87.3929 77.8276C86.4034 77.8276 85.382 78.3765 85.382 79.532C85.382 80.5141 86.0842 80.9763 87.1056 81.4963C88.7334 82.3629 88.925 82.7095 88.925 83.2583C88.925 83.8072 88.4781 84.3849 87.5844 84.3849C86.8183 84.3849 86.3077 84.0672 85.9565 83.6628C85.797 83.4606 85.6373 83.2583 85.5416 83.085L85.3182 82.5939H85.0628L85.382 84.7316H85.6374C85.6374 84.5582 85.7331 84.3849 85.9885 84.3849L86.2757 84.4427L86.6587 84.5583C86.946 84.6449 87.2971 84.7316 87.7121 84.7316C89.308 84.7316 90.0421 83.7783 90.0421 82.9117C90.0421 81.9007 89.1165 81.3229 88.1908 80.8319L87.5205 80.4563L86.9141 80.0808C86.563 79.8208 86.3396 79.532 86.3396 79.1564C86.3396 78.5209 86.9141 78.232 87.4567 78.232C88.6058 78.232 89.3399 79.1275 89.4995 79.9653H89.7868ZM84.4564 78.1743V77.9721H81.8391V78.1743C82.6051 78.2321 82.8924 78.2898 82.8924 79.4453V82.7962H82.8604L78.6153 77.9721H76.7321V78.1743C77.1789 78.1743 77.3386 78.2321 77.8173 78.7231V83.1428C77.8173 84.2116 77.5939 84.3849 76.7321 84.4138V84.616H79.3494V84.4138C78.5514 84.3849 78.2961 84.1538 78.2961 83.1428V79.2431H78.328L83.2115 84.7316H83.4031V79.4742C83.3711 78.2898 83.7542 78.2609 84.4564 78.1743ZM69.0078 81.3229C69.0078 83.4606 70.6356 84.7605 72.6146 84.7605C74.6255 84.7605 76.2214 83.4606 76.2214 81.3229C76.2214 79.012 74.402 77.8565 72.6146 77.8565C70.7952 77.8565 69.0078 79.012 69.0078 81.3229ZM74.9766 81.294C74.9766 83.4894 73.8594 84.3849 72.6146 84.3849C71.3698 84.3849 70.2526 83.4894 70.2526 81.294C70.2526 79.012 71.4974 78.2032 72.6146 78.2032C73.7637 78.2032 74.9766 79.012 74.9766 81.294ZM65.1457 84.4138V84.616H68.4333V84.4138C67.6034 84.3849 67.348 84.2983 67.348 83.5183V79.0698C67.348 78.2609 67.6353 78.2032 68.4333 78.1743V77.9721H65.1457V78.1743C66.0713 78.2032 66.2309 78.3187 66.2309 79.0698V83.5183C66.199 84.2405 66.0713 84.4138 65.1457 84.4138ZM56.3681 82.0451H53.8146L55.0913 79.3009L56.3681 82.0451ZM33.2272 84.4138V84.616H36.3871C39.7705 84.616 40.6323 82.6517 40.6323 81.3229C40.6323 79.0698 38.8767 77.9721 36.2275 77.9721H33.2272V78.1743C34.089 78.2321 34.2166 78.3187 34.2166 79.0698V83.5183C34.2166 84.2116 34.089 84.3849 33.2272 84.4138ZM35.3338 83.8361V78.6076L35.3976 78.492C35.4615 78.4054 35.5891 78.3765 35.8445 78.3765C37.2489 78.3765 37.8553 78.6365 38.398 79.0698C39.164 79.6764 39.4194 80.5141 39.4194 81.3518C39.4194 82.825 38.7491 83.5472 37.983 83.8939C37.6 84.0672 37.1851 84.1538 36.834 84.2116L36.3552 84.2694H36.0041C35.4934 84.2405 35.3338 84.1827 35.3338 83.8361ZM32.3973 84.616L32.908 82.9117H32.5888C32.11 83.9227 31.5355 84.2116 30.163 84.2116C29.3331 84.2116 28.9182 84.2116 28.7267 84.1538L28.5351 84.0383L28.5032 83.8072V81.3229L30.1949 81.3518C31.1205 81.3518 31.2801 81.4963 31.4078 82.3051H31.6632V79.9941H31.4078C31.2801 80.7163 31.1844 80.9474 30.1949 80.9474H28.5032V78.7231C28.5032 78.5498 28.5351 78.4631 28.599 78.4343L28.7267 78.4054H28.8862H30.3864C31.6312 78.4054 31.8866 78.5787 32.0781 79.4453H32.3654L32.3334 78.001H26.4604V78.2032C27.1626 78.2609 27.418 78.3187 27.418 79.0987V83.5472C27.418 84.3272 27.1626 84.4138 26.4604 84.4427V84.6449H32.3973V84.616ZM24.5453 84.616V84.4138C23.6197 84.3849 23.492 84.1827 23.492 83.5183V78.4054H24.0985C25.3114 78.4054 25.6306 78.5787 25.854 79.6764H26.1093L26.0455 77.9721H19.8214L19.7576 79.6764H20.0129C20.2682 78.5787 20.5555 78.4054 21.7684 78.4054H22.3749V83.4028C22.3749 84.1538 22.343 84.3849 21.3216 84.4138V84.616H24.5453ZM16.055 84.4138V84.616H19.3426V84.4138C18.5127 84.3849 18.2574 84.2983 18.2574 83.5183V79.0698C18.2574 78.2609 18.5447 78.2032 19.3426 78.1743V77.9721H16.055V78.1743C16.9806 78.2032 17.1402 78.3187 17.1402 79.0698V83.5183C17.1402 84.2405 17.0126 84.4138 16.055 84.4138ZM15.7039 78.1743V77.9721H13.0866V78.1743C13.8526 78.2321 14.1399 78.2898 14.1399 79.4453V82.7962H14.108L9.86282 77.9721H7.97963V78.1743C8.42649 78.1743 8.58608 78.2321 9.06485 78.7231V83.1428C9.06485 84.2116 8.84143 84.3849 7.97963 84.4138V84.616H10.5969V84.4138C9.79898 84.3849 9.54363 84.1538 9.54363 83.1428V79.2431H9.57555L14.4591 84.7316H14.6506V79.4742C14.6506 78.2898 15.0017 78.2609 15.7039 78.1743ZM7.69236 78.1743V77.9721H5.10696V78.1743C5.87301 78.2032 6.16027 78.3765 6.16027 79.4453V82.1606C6.16027 82.9695 6.06452 83.3161 5.90492 83.5183C5.58574 83.9805 4.94736 84.2983 4.08557 84.2983C3.12801 84.2983 2.64924 83.9516 2.39389 83.5183C2.26621 83.3161 2.20237 83.085 2.17045 82.8539L2.13853 82.2473V79.0409C2.13853 78.3187 2.26621 78.2032 3.12801 78.1454V77.9432H0V78.1454C0.8618 78.2032 0.989476 78.2898 0.989476 79.0409V82.1895V82.4784L1.02139 82.8539C1.0533 83.1139 1.14907 83.4317 1.30866 83.6917C1.65976 84.2405 2.33005 84.7316 3.70255 84.7316C5.13888 84.7316 5.84109 84.2694 6.22411 83.6917C6.41562 83.4028 6.47946 83.085 6.54329 82.7962L6.57521 82.3917V82.0451V79.4453C6.63905 78.4054 6.83056 78.2609 7.69236 78.1743ZM51.6442 78.1743V77.9721H49.0268V78.1743C49.7929 78.2321 50.0801 78.2898 50.0801 79.4453V82.7962V82.7962L45.835 77.9721H43.9518V78.1743C44.3986 78.1743 44.5902 78.2321 45.037 78.7231V83.1428C45.037 84.2116 44.8136 84.3849 43.9518 84.4138V84.616H46.5691V84.4138C45.7711 84.3849 45.5158 84.1538 45.5158 83.1428V79.2431H45.5477L50.4312 84.7316H50.6228V79.4742C50.5908 78.2898 50.9419 78.2609 51.6442 78.1743ZM63.1667 84.616V84.4138C62.2411 84.3849 62.1134 84.1827 62.1134 83.5183V78.4054H62.7199C63.9328 78.4054 64.2519 78.5787 64.4754 79.6764H64.7307L64.6669 77.9721H58.4428L58.3789 79.6764H58.6343C58.8896 78.5787 59.1769 78.4054 60.3898 78.4054H60.9963V83.4028C60.9963 84.1538 60.9644 84.3849 59.943 84.4138V84.616H63.1667ZM59.2408 84.616V84.4138C58.762 84.3849 58.6024 84.2694 58.2513 83.5472L55.5063 77.8565H55.2828L52.9847 82.7673L52.6017 83.5472C52.4421 83.8072 52.3144 84.0672 52.1868 84.1827C51.9952 84.3849 51.8037 84.3849 51.6122 84.4138V84.616H53.8146V84.4138H53.5912L53.3358 84.356C53.1762 84.2983 53.0486 84.1827 53.0486 83.9805C53.0486 83.865 53.0805 83.7205 53.1443 83.605L53.655 82.4206H56.5596L57.0065 83.3739C57.0703 83.5183 57.2299 83.8361 57.2299 84.0094C57.2299 84.3849 56.8788 84.3849 56.4638 84.3849V84.5871H59.2408V84.616Z" fill="#231F20"/>
<path d="M0.924805 87.3892H90.0413" stroke="black" stroke-miterlimit="10"/>
<path d="M3.44821 90.2488V97.2683C3.44821 99.9259 4.75687 101.052 6.51239 101.052C8.45942 101.052 9.70425 99.897 9.70425 97.2683V90.2488H11.4278V97.1817C11.4278 100.821 9.32122 102.324 6.44855 102.324C3.76739 102.324 1.72461 100.937 1.72461 97.2394V90.2488H3.44821Z" fill="black"/>
<path d="M18.2578 102.122V90.2499H20.1091L24.3223 96.2584C25.3118 97.6449 26.0459 98.9159 26.6843 100.129L26.7162 100.1C26.5566 98.5115 26.5247 97.0672 26.5247 95.2184V90.2499H28.1206V102.122H26.397L22.2157 96.085C21.2901 94.7562 20.4283 93.3986 19.758 92.1275L19.6941 92.1564C19.7899 93.6585 19.8218 95.074 19.8218 97.0672V102.122H18.2578Z" fill="black"/>
<path d="M44.1431 101.746C43.5048 102.035 42.2599 102.324 40.664 102.324C36.9615 102.324 34.1846 100.215 34.1846 96.3152C34.1846 92.5888 36.9615 90.0756 41.047 90.0756C42.6749 90.0756 43.7282 90.3934 44.1751 90.5956L43.7601 91.8377C43.1218 91.5488 42.1961 91.3466 41.1109 91.3466C38.0467 91.3466 36.0039 93.1376 36.0039 96.2574C36.0039 99.1749 37.8552 101.024 41.047 101.024C42.0684 101.024 43.1217 100.821 43.824 100.533L44.1431 101.746Z" fill="black"/>
<path d="M53.1763 91.5498H49.1865V90.2499H58.8897V91.5498H54.868V102.122H53.1444V91.5498H53.1763Z" fill="black"/>
<path d="M64.9229 98.396L63.5504 102.122H61.7949L66.2635 90.2499H68.3063L72.7749 102.122H70.9555L69.5511 98.396H64.9229ZM69.2319 97.1827L67.9552 93.7741C67.6679 92.9942 67.4764 92.3009 67.2849 91.6076H67.253C67.0615 92.3009 66.838 93.023 66.5827 93.7452L65.306 97.1827H69.2319V97.1827Z" fill="black"/>
<path d="M78.6152 90.3943C79.6366 90.2499 80.8814 90.1343 82.222 90.1343C84.6478 90.1343 86.4033 90.6543 87.5524 91.6076C88.7334 92.5897 89.4037 93.9474 89.4037 95.8828C89.4037 97.8182 88.7334 99.4069 87.5205 100.505C86.3076 101.602 84.2648 102.209 81.7113 102.209C80.4984 102.209 79.477 102.151 78.6471 102.065V90.3943H78.6152ZM80.3069 100.909C80.7219 100.967 81.3602 100.996 82.0305 100.996C85.6373 100.996 87.6162 99.1759 87.6162 95.9694C87.6482 93.1674 85.8927 91.3765 82.2859 91.3765C81.4241 91.3765 80.7538 91.4342 80.3069 91.5209V100.909V100.909Z" fill="black"/>
</svg>
