<svg xmlns="http://www.w3.org/2000/svg" viewBox="0 0 1247.3 403.2">
    <path fill="#FFF" d="M447.9 188.7h25v25.8h-25zm86.2-177.4v38.3c0 6.9.5 15.5 13.7 15.5 2.2 0 8.7-.1 12.2-5.5 1.3-1.9 2-4.3 2-10.7V11.3h13.1v39.2c0 18.7-14.9 24.7-27.6 24.7-6.3 0-17.7-1.4-23.7-10.9-3-4.8-3.2-9.7-3.2-15.5V11.2l13.5.1zm53.7 26.6c0-.2 0-5-.3-8h12.4l.3 6.6c1.2-2 4.7-7.7 14.3-7.7 8.6 0 12.3 5.2 13.4 8.3 1 2.7 1.2 5 1.2 13.1V74H616V46.7c0-1.8 0-3.4-.7-4.8-1-1.9-3-3.7-6.3-3.7-2.8 0-5.3 1.3-6.7 3.4-.8 1.1-1.6 3.3-1.6 6.7v25.8h-13l.1-36.2zm53-26.8h12.9V74h-12.9V11.1zM685.7 29c15.9 0 22.8 10.8 22.8 23.1 0 12.4-7.1 23.5-23.1 23.5-12.5 0-22.4-7.7-22.4-23.1 0-10.7 5.4-23.5 22.7-23.5zm.2 37.6c5.7 0 9.5-3.4 9.5-15.1 0-5.8-1.1-13.9-9.7-13.9-9.4 0-9.5 10.9-9.5 14.9 0 9.8 3.3 14.1 9.7 14.1zm55.5-21c-.2-1.6-.7-8.1-5.7-8.1-6.1 0-6.8 9.2-6.8 14 0 2.4.3 10.3 3.2 13.5 1.2 1.3 2.5 1.5 3.5 1.5 1.4 0 5.4-.6 5.9-8.4h12.7c-.2 3.4-.6 8.7-5.7 13-3.1 2.7-7 4.1-12.5 4.1-5.8 0-11-1.3-15-5.8-3.8-4.4-5.6-10.3-5.6-17.3 0-20 14.7-22.8 20.5-22.8 8.2 0 17.8 4.5 17.9 16.4l-12.4-.1zm18.7-34.5h12.8v37.1l13.3-18.4h14.5l-15.1 19.1 16 25.1h-15.2l-13.6-23.9V74H760l.1-62.9zm47.7.1h13.7v11.2h-13.7V11.2zm.5 18.8h12.9v44h-12.9V30zm24.3 7.9c0-.2 0-5-.3-8h12.4l.3 6.6c1.2-2 4.7-7.7 14.3-7.7 8.6 0 12.3 5.2 13.4 8.3 1 2.7 1.2 5 1.2 13.1V74h-13.1V46.7c0-1.8 0-3.4-.7-4.8-1-1.9-3-3.7-6.3-3.7-2.8 0-5.3 1.3-6.7 3.4-.8 1.1-1.6 3.3-1.6 6.7v25.8h-13l.1-36.2zm94.7-7.7c-.3 3.5-.6 6.4-.6 10.9v32.5c0 16.2-13.5 17.7-21.9 17.7-6.3 0-18.5-.8-19.3-14.1h12.4c.2 1.3.8 6.1 7.7 6.1 3.8 0 7.1-1.8 8-5.7.5-2.2.5-3.7.6-10.4-4.1 5.4-8.7 6-11.8 6-12.6 0-18.5-11-18.5-21.6 0-11.1 6.2-21.8 18.8-21.8 8 0 11 4.4 12.3 6.3l.4-5.8 11.9-.1zm-22.1 34.1c9 0 9-10.6 9-12.5 0-5-1-13.4-8.8-13.4-4.9 0-8.9 3.7-8.9 13.1.1 2.2.1 12.8 8.7 12.8zM520 115.7h19.4c9 0 16.6.6 21.8 6.9 3.3 4 3.8 8.5 3.8 11.7 0 7.3-3 13.5-8 16.7-4.6 3-11 3-14.3 3h-9.1v24.4h-13.7l.1-62.7zm13.3 28.2h5.4c4.4 0 12.4 0 12.4-9.6 0-8.5-7.2-8.5-11-8.5h-6.8v18.1zm52.4-9.4v26.2c0 3.8 0 9.7 6.9 9.7 8.3 0 8.3-6.2 8.3-13.7v-22.2h13.2v29c.2 9.5.3 10.6.3 11.7.1 1.2.2 2 .3 3.2h-12.5l-.4-5.8c-1.3 1.9-4.6 7-13 7-5.9 0-10.8-2.7-13.2-5.9-2.9-3.6-2.9-9.7-2.9-11.8v-27.3l13-.1zm40.1-18.8h12.9v24.1c4.4-5.7 10.2-5.9 12.4-5.9 10.7 0 19.1 8.4 19.1 23.2 0 16.4-9.6 22.2-18.4 22.2-2.3 0-9.2-.2-13.2-7-.1 1.4-.2 3.5-.4 6.2h-12.4v-62.8zm21.9 26.8c-9.5 0-9.5 10.8-9.5 13.6 0 10 4.3 14.8 10.1 14.8 8.9 0 8.9-11 8.9-13.3 0-3.6-.2-15.1-9.5-15.1zm31.7-27h12.9v62.9h-12.9v-62.9zm23.8.1h13.7v11.2h-13.7v-11.2zm.4 18.8h12.9v44h-12.9v-44zM751 150c-.2-1.6-.7-8.1-5.7-8.1-6.1 0-6.8 9.2-6.8 14 0 2.4.3 10.3 3.2 13.5 1.2 1.3 2.5 1.5 3.5 1.5 1.4 0 5.4-.6 5.9-8.4h12.8c-.2 3.4-.6 8.7-5.7 13-3.1 2.7-7 4.1-12.5 4.1-5.8 0-11-1.3-15-5.8-3.8-4.4-5.6-10.3-5.6-17.3 0-20 14.7-22.8 20.5-22.8 8.2 0 17.8 4.5 17.9 16.4L751 150zm70.9 28.4c-.4-2.7-.4-4.7-.4-6-4.9 7-10.7 7-13.1 7-6.4 0-9.2-1.8-11-3.5-2.6-2.6-3.8-6.2-3.8-9.7s1.2-9.9 9.3-13.7c5.4-2.4 13.1-2.4 17.4-2.4 0-2.9-.1-4.3-.6-5.8-1.1-3.2-4.5-3.7-5.7-3.7-1.8 0-3.7.8-4.9 2.4-1 1.5-1 2.9-1 3.9h-12.6c.1-2.3.3-7 5-10.4 4-2.9 9.1-3.6 13.3-3.6 3.7 0 11.3.6 15.7 5.7 3 3.6 3 8.8 3 10.8l.1 17.7c0 3.7.3 7.5 1 11.1h-11.7v.2zM806 164.8c0 3 2 6.3 6.3 6.3 2.3 0 4.3-1.1 5.5-2.5 2.3-2.8 2.4-6.2 2.4-10.9-8.3-.7-14.2 1.9-14.2 7.1zm38-22.5c0-.2 0-5-.3-8h12.4l.3 6.6c1.2-2 4.7-7.7 14.3-7.7 8.6 0 12.3 5.2 13.4 8.3 1 2.7 1.2 5 1.2 13.1v23.8h-13.1v-27.3c0-1.8 0-3.4-.7-4.8-1-1.9-3-3.7-6.3-3.7-2.8 0-5.3 1.3-6.7 3.4-.8 1.1-1.6 3.3-1.6 6.7v25.8h-13v-36.2h.1zm82.1-26.7h13v55.7c0 2.6.2 5.5.3 7.1h-13.1l-.3-6.4c-.9 1.6-1.7 3.2-4.4 5-3.2 2.1-6.6 2.3-8.5 2.3-11.7 0-18.7-8.1-18.7-21.8 0-14.5 7.9-23.6 19.4-23.6 7.9 0 11.2 4.4 12.4 6v-24.3h-.1zm-9.9 55.3c3.7 0 6.8-2.3 8.2-5 1.9-3.7 2.1-8.2 2.1-10.4 0-8.6-3.7-13.3-9.6-13.3-8.6 0-9.6 10.4-9.6 14.8.1 7.4 2.5 13.9 8.9 13.9zm58.2-55.2h19.4c9 0 16.6.6 21.8 6.9 3.3 4 3.8 8.5 3.8 11.7 0 7.3-3 13.5-8 16.7-4.6 3-11 3-14.3 3H988v24.4h-13.7l.1-62.7zm13.3 28.2h5.4c4.4 0 12.4 0 12.4-9.6 0-8.5-7.2-8.5-11-8.5h-6.8v18.1zm39.8 1.3c0-2.1-.3-8.4-.6-11h12.1l.3 8.4c1.7-3.7 4.5-9 15-8.5v11.6c-13.1-1.2-13.8 5.5-13.8 11v21.7h-12.9l-.1-33.2zm29.9-29.6h13.7v11.2h-13.7v-11.2zm.5 18.8h12.9v44h-12.9v-44zm32.9.1l9.9 29.8 10.1-29.8h12.4l-15.8 43.9h-14.3l-16.1-43.9h13.8zm62.5 43.9c-.4-2.7-.4-4.7-.4-6-4.9 7-10.7 7-13.1 7-6.4 0-9.2-1.8-11-3.5-2.6-2.6-3.8-6.2-3.8-9.7s1.2-9.9 9.3-13.7c5.4-2.4 13.1-2.4 17.4-2.4 0-2.9-.1-4.3-.6-5.8-1.1-3.2-4.5-3.7-5.7-3.7-1.8 0-3.7.8-4.9 2.4-1 1.5-1 2.9-1 3.9h-12.6c.1-2.3.3-7 5-10.4 4-2.9 9.1-3.6 13.3-3.6 3.7 0 11.3.6 15.7 5.7 3 3.6 3 8.8 3 10.8l.1 17.7c0 3.7.3 7.5 1 11.1h-11.7v.2zm-15.8-13.6c0 3 2 6.3 6.3 6.3 2.3 0 4.3-1.1 5.5-2.5 2.3-2.8 2.4-6.2 2.4-10.9-8.3-.7-14.2 1.9-14.2 7.1zm63.7 13c-4.2 1.1-7.9 1.4-10 1.4-13 0-13-8.2-13-11.8v-24.1h-8.4v-8.5h8.4v-8.6l12.8-4.7v13.3h10.4v8.5H1191v19.8c.1 4 .1 6.5 5.8 6.5 1.9 0 2.8-.1 4.4-.3v8.5zm16.6-18.1c0 2.9 0 11.7 9 11.7 3.2 0 6.4-1.2 7.7-6.1h11.7c-.2 2.1-.6 5.8-4.2 9.6-3.2 3.4-9 5.1-15.4 5.1-3.7 0-10.9-.7-15.5-5.5-4-4.2-5.7-10.1-5.7-17.1 0-7.1 1.7-15.7 9.1-20.8 3.4-2.3 7.6-3.7 12.4-3.7 6.3 0 13.7 2.4 17.7 10.6 3 6 2.8 12.4 2.6 16.1l-29.4.1zm16.3-8.1c0-2-.2-9.8-7.7-9.8-5.7 0-8 4.7-8.3 9.8h16zM520.3 220h40.6v10.1h-27.1v15.5H559V256h-25.2v26.8h-13.5V220zm47.6 0h13.7v11.2h-13.7V220zm.4 18.8h12.9v44h-12.9v-44zm24.4 7.9c0-.2 0-5-.3-8h12.4l.3 6.6c1.2-2 4.7-7.7 14.3-7.7 8.6 0 12.3 5.2 13.4 8.3 1 2.7 1.2 5 1.2 13.1v23.8h-13.1v-27.3c0-1.8 0-3.4-.7-4.8-1-1.9-3-3.7-6.3-3.7-2.8 0-5.3 1.3-6.7 3.4-.8 1.1-1.6 3.3-1.6 6.7v25.8h-13l.1-36.2zm79.3 36.1c-.4-2.7-.4-4.7-.4-6-4.9 7-10.7 7-13.1 7-6.4 0-9.2-1.8-11-3.5-2.6-2.6-3.8-6.2-3.8-9.7s1.2-9.9 9.3-13.7c5.4-2.4 13.1-2.4 17.4-2.4 0-2.9-.1-4.3-.6-5.8-1.1-3.2-4.5-3.7-5.7-3.7-1.8 0-3.7.8-4.9 2.4-1 1.5-1 2.9-1 3.9h-12.6c.1-2.3.3-7 5-10.4 4-2.9 9.1-3.6 13.3-3.6 3.7 0 11.3.6 15.7 5.7 3 3.6 3 8.8 3 10.8l.1 17.7c0 3.7.3 7.5 1 11.1H672v.2zm-15.8-13.6c0 3 2 6.3 6.3 6.3 2.3 0 4.3-1.1 5.5-2.5 2.3-2.8 2.4-6.2 2.4-10.9-8.3-.7-14.2 1.9-14.2 7.1zm38-22.5c0-.2 0-5-.3-8h12.4l.3 6.6c1.2-2 4.7-7.7 14.3-7.7 8.6 0 12.3 5.2 13.4 8.3 1 2.7 1.2 5 1.2 13.1v23.8h-13.1v-27.3c0-1.8 0-3.4-.7-4.8-1-1.9-3-3.7-6.3-3.7-2.8 0-5.3 1.3-6.7 3.4-.8 1.1-1.6 3.3-1.6 6.7v25.8h-13l.1-36.2zm76.2 7.7c-.2-1.6-.7-8.1-5.7-8.1-6.1 0-6.8 9.2-6.8 14 0 2.4.3 10.3 3.2 13.5 1.2 1.3 2.5 1.5 3.5 1.5 1.4 0 5.4-.6 5.9-8.4h12.7c-.2 3.4-.6 8.7-5.7 13-3.1 2.7-7 4.1-12.5 4.1-5.8 0-11-1.3-15-5.8-3.8-4.4-5.6-10.3-5.6-17.3 0-20 14.7-22.8 20.5-22.8 8.2 0 17.8 4.5 17.9 16.4l-12.4-.1zm30.7 9.7c0 2.9 0 11.7 9 11.7 3.2 0 6.4-1.2 7.7-6.1h11.7c-.2 2.1-.6 5.8-4.2 9.6-3.2 3.4-9 5.1-15.4 5.1-3.7 0-10.9-.7-15.5-5.5-4-4.2-5.7-10.1-5.7-17.1 0-7.1 1.7-15.7 9.1-20.8 3.4-2.3 7.6-3.7 12.4-3.7 6.3 0 13.7 2.4 17.7 10.6 3 6 2.8 12.4 2.6 16.1l-29.4.1zm16.3-8.1c0-2-.2-9.8-7.7-9.8-5.7 0-8 4.7-8.3 9.8h16zm46.7-8h-6.5v-9.1h6.5v-6c0-7.7 2.6-14 15.1-14 .9 0 3.3 0 7 .4v9c-1.3-.2-1.7-.3-2.7-.3-6.6 0-6.6 3.5-6.6 5.7v5.1h8.2v9.1h-8.2v34.8h-12.8V248zm47.1-10.2c15.9 0 22.8 10.8 22.8 23.1 0 12.4-7.1 23.5-23.1 23.5-12.5 0-22.4-7.7-22.4-23.1 0-10.7 5.4-23.5 22.7-23.5zm.2 37.6c5.7 0 9.5-3.4 9.5-15.1 0-5.8-1.1-13.9-9.7-13.9-9.4 0-9.5 10.9-9.5 14.9 0 9.8 3.3 14.1 9.7 14.1zm32.3-25.8c0-2.1-.3-8.4-.6-11h12.1l.3 8.4c1.7-3.7 4.5-9 15-8.5v11.6c-13.1-1.2-13.8 5.5-13.8 11v21.7h-12.9l-.1-33.2zm-397.9 137c-4.2 1.1-7.9 1.4-10 1.4-13 0-13-8.2-13-11.8V352h-8.4v-8.5h8.4v-8.6l12.8-4.7v13.3H546v8.5h-10.4v19.8c.1 4 .1 6.5 5.8 6.5 1.9 0 2.8-.1 4.4-.3v8.6zm8.4-62.2h12.7v24.9c1.5-2.1 4.7-6.6 12.7-6.6 6.5 0 10.7 3.2 12.8 5.9 1.6 2.2 2.9 6.2 2.9 11.9v26.7h-12.8v-26.3c0-2.5 0-9.6-7.2-9.6-3.7 0-8.3 2.1-8.3 9l.1 26.9h-13l.1-62.8zm63.1 44.1c0 2.9 0 11.7 9 11.7 3.2 0 6.4-1.2 7.7-6.1h11.7c-.2 2.1-.6 5.8-4.2 9.6-3.2 3.4-9 5.1-15.4 5.1-3.7 0-10.9-.7-15.5-5.5-4-4.2-5.7-10.1-5.7-17.1 0-7.1 1.7-15.7 9.1-20.8 3.4-2.3 7.6-3.7 12.4-3.7 6.3 0 13.7 2.4 17.7 10.6 3 6 2.8 12.4 2.6 16.1h-29.4v.1zm16.4-8.1c0-2-.2-9.8-7.7-9.8-5.7 0-8 4.7-8.3 9.8h16zm45.8-35.9h19.4c9 0 16.6.6 21.8 6.9 3.3 4 3.8 8.5 3.8 11.7 0 7.3-3 13.5-8 16.7-4.6 3-11 3-14.3 3h-9.1v24.4h-13.7l.1-62.7zm13.3 28.2h5.4c4.4 0 12.4 0 12.4-9.6 0-8.5-7.2-8.5-11-8.5h-6.8v18.1zm57.1-10.5c15.9 0 22.8 10.8 22.8 23.1 0 12.4-7.1 23.5-23.1 23.5-12.5 0-22.4-7.7-22.4-23.1 0-10.7 5.4-23.5 22.7-23.5zm.2 37.6c5.7 0 9.5-3.4 9.5-15.1 0-5.8-1.1-13.9-9.7-13.9-9.4 0-9.5 10.9-9.5 14.9 0 9.8 3.3 14.1 9.7 14.1zm53-37.6c15.9 0 22.8 10.8 22.8 23.1 0 12.4-7.1 23.5-23.1 23.5-12.5 0-22.4-7.7-22.4-23.1 0-10.7 5.3-23.5 22.7-23.5zm.1 37.6c5.7 0 9.5-3.4 9.5-15.1 0-5.8-1.1-13.9-9.7-13.9-9.4 0-9.5 10.9-9.5 14.9.1 9.8 3.4 14.1 9.7 14.1zm32.3-25.8c0-2.1-.3-8.4-.6-11H847l.3 8.4c1.7-3.7 4.5-9 15-8.5v11.6c-13.1-1.2-13.8 5.5-13.8 11v21.7h-12.9l-.1-33.2z" />
    <path fill="#FFF" d="M456.8 0h8v403.2h-8z" />
    <g fill="#FFF"><path d="M399.5 276.7v117.1H278.4V276.7h121.1m3.7-3.7H274.7v124.5h128.5V273zm-141.5 3.7v117H140.6v-117h121.1m3.7-3.7H136.9v124.4h128.5V273zm-140.6 3.9v117H3.7v-117h121.1m3.7-3.7H0v124.4h128.5V273.2z" /><path d="M91.6 378.7c-4 2-12.3 4.1-22.8 4.1-24.3 0-42.5-15.3-42.5-43.7 0-27.1 18.3-45.2 45-45.2 10.6 0 17.5 2.3 20.5 3.8l-2.8 9.1c-4.1-2-10.1-3.6-17.3-3.6-20.2 0-33.7 12.9-33.7 35.5 0 21.2 12.2 34.6 33 34.6 6.9 0 13.8-1.4 18.3-3.6l2.3 9zm75.8-81.9c6.8-1.1 14.8-1.9 23.7-1.9 16 0 27.4 3.8 34.9 10.7 7.8 7 12.3 17 12.3 30.9 0 14.1-4.5 25.6-12.4 33.5-8.2 8.1-21.5 12.4-38.3 12.4-8.1 0-14.6-.4-20.2-1v-84.6zm11.2 76.1c2.8.4 6.9.5 11.3.5 23.9 0 36.7-13.3 36.7-36.5.1-20.3-11.4-33.2-34.9-33.2-5.8 0-10.1.5-13.1 1.1v68.1zm137.9-77.4h46.4v9.3h-35.2v28.6h32.5v9.2h-32.5v39h-11.3v-86.1h.1zm-54.8-152.8v117.9H140.6V142.7h121.1m3.7-3.7H136.9v125.3h128.5V139z" /><path d="M180.3 160.9V212c0 19.2 8.6 27.3 20.1 27.3 12.7 0 21-8.4 21-27.3v-51.1h11.3v50.3c0 26.4-13.9 37.2-32.6 37.2-17.7 0-31-10-31-36.8v-50.7h11.2zm219.2-18.2v117.9H278.4V142.7h121.1m3.7-3.7H274.7v125.3h128.5V139z" /><path d="M303.1 247.1V161h12.3l27.5 43.6c6.3 10.1 11.4 19.2 15.4 28l.4-.1c-1-11.5-1.3-22-1.3-35.4v-36h10.5v86.1h-11.3l-27.4-43.7c-6-9.6-11.8-19.4-16-28.8l-.4.1c.6 10.9.8 21.2.8 35.5v36.8h-10.5zM399.5 8.5v117.9H278.4V8.5h121.1m3.7-3.7H274.7V130h128.5V4.8z" /><path d="M394.8 69.3c.8 7.1-2.1 11.6-5.4 15.2-3.4 3.7-8.3 5.8-12.2 8.9.8-1.6 1.6-3.4 2.1-5.5.4-2.1.6-4.4.8-6.7.4-4.7.7-9.3 2.4-12.7-.2 3.9 1 7 1.3 10.5.4 3.9-.9 6.8-2.4 9.3.5-.1.7-.7 1-1.1 1.4-1.9 2.7-4 4.2-5.8 3-3.6 7.5-6.3 8.2-12.1z" /><path d="M393.4 52.8c1.9 4.1 1.8 10.2.5 14.6-.8 2.6-1.9 4.4-3.3 6.2-1.6 2.1-3.5 4.2-4.8 6.5 0-2.3.3-4.3-.2-6.3-.4-1.7-1.1-3.4-1.6-5.2-.5-1.7-1-3.5-1.4-5.4-.5-2.4-.9-4.9-.8-7.7.8 2.8 2.3 5 3.8 7.3 1.5 2.4 2.6 4.8 2.5 8.4 0 1.4-.6 2.4-.6 3.6.5-.3.4-.8.5-1.3.3-1.4.6-2.9 1-4.3.5-1.9 1.1-3.6 1.9-5.2 1.4-3.2 3-6.6 2.5-11.2 0-.1 0 0 0 0z" /><path d="M392.1 50.9c0 5.9-3.1 9.2-3.5 14.5-.2-.2-.2-.5-.3-.8-1-3.9-3.2-6.4-5.3-9.3-2.2-3-4.1-6-5-10.5 0-.1.1 0 .1 0 2.2 3.9 6.9 5.5 8.9 9.7.6 1.4.9 2.9 1.3 4.8.3-.2.1-.5.1-.8-.2-3.1-.4-6.8-.1-10.1.1-1.2.3-2.3.4-3.5.2-2.7-.5-5-1.5-6.8.1-.2.4.2.5.4.5.5.9 1.3 1.4 1.9 1.7 2.6 3 6.3 3 10.5zm-.9 33.6c-.4 3-1.7 5.4-3.2 7.4-1.5 2.1-3.4 3.8-5.5 5.3s-4.5 2.6-7.4 3.3c-2.8.7-5.8 1.1-8.8 1.9-.3.2.2-.3.3-.4 1.3-1.2 2.4-2.8 3.2-4.5 2-4 2.7-9 5.1-12.7 1.2-1.9 2.5-3.5 3.7-5.2.1.1 0 .1 0 .1-1.5 3.4-1.5 7.8-2.5 11.4-.9 3.8-3.1 6.2-5.4 8.4 1-.3 1.9-1 2.7-1.7 5.6-4.7 14.7-6 17.8-13.3z" /><path d="M380.8 31.7c3.5 2 6 5.9 5.9 11.4-.1 2.8-.5 6.1.1 8.7-1.8-3.4-5-5.4-7.8-7.7-2.9-2.3-5.2-5-5.8-9.7 2 4.1 6.8 5.5 9.6 8.7.5.6 1 1.1 1.3 1.7.4.6.6 1.3 1.1 1.9 0-.7-.5-1.3-.7-2-.7-2-1.2-4.4-1.8-6.7-.4-1.5-.7-3.1-1.4-4.3s-1.6-2.1-2.6-3c.4 0 1.6.7 2.1 1zm1.7 36.8c-.1-.3.2 0 0 0zm.2 30.4c0 .3-.6 1.3-.9 1.7-1.2 1.8-2.9 3.2-4.6 4.3-2.4 1.7-5.3 3-8.7 3.2-6.5.4-11.2-2.3-16.8-2.8 2.4-.6 4.3-1.2 6-2.1 1.8-.9 3.1-2.3 4.5-3.7 2.7-2.8 5.5-5.4 8.6-7.7 0 .3-.2.6-.4.8-2.2 3.5-3.2 8.1-6.8 10.4-1.4.8-2.9 1.3-4.7 1.9 2 .1 4.2-.6 6.4-.9 2.3-.3 4.7-.4 6.9-.6 4.5-.6 8.2-1.9 10.5-4.5z" /><path d="M380.2 36.5c.4 1.2.7 2.6 1.2 3.7-3.1-2.3-6-4.9-8.5-8.1-.8-1.1-1.5-2.2-2.3-3.3-.9-1.3-2.3-2.1-3.3-3.3 0-.1.1 0 .1 0 3.5 1.3 6.7 2.3 8.9 4.6 1.9 1.8 3 3.8 3.9 6.4zm-36.1 55.4c-.3 0-.5-.3-.8-.5-.2-.1-.5-.1-.7-.2-.5-.3-1-1.4-.9-2 0-.4.4-.6.4-1-.2-.7-1.5-.2-2.2-.4-.4-.1-.4-.5-.8-.5.4.5.2 1.2.3 2.1 0 1.2.1 2.4 0 3.3 1.2-.6 3.2-.4 4.7-.8zm31.2-45.5c2.1 4.7 3.3 10.3 3.3 16.7 0 6.3-1.6 11.7-3.8 16.2-4.3 8.9-11.1 15.8-20.2 19.9-4.7 2.1-10.1 3.4-16.7 3.4-6.4 0-11.8-1.5-16.4-3.5-4.7-2.1-8.5-4.9-11.8-8.2-3.3-3.3-6-7.2-8.1-11.9-2.1-4.6-3.5-10.2-3.5-16.5 0-12.8 5.1-21.7 11.6-28.4 6.6-6.9 15.4-11.3 28.1-12h1.7l.1.1c6.3.1 11.5 1.8 16 3.9 9 4.2 15.5 11.1 19.7 20.3zm1.1 19.6c.1-.9 0-2.2.4-2.7-1.8.3-4.1.1-6.1.2 0-.2-.2-.2-.3-.2.3 1 .1 2.3-.1 3.6-.2 1.1-.3 2.1-.5 2.9-1.4 6-4.3 10.8-7.8 14.4 1.7 1.2 3 2.9 4.5 4.3 1.2-1.7 2.6-3.2 3.7-4.9 3.1-4.8 5.5-10.5 6.2-17.6zm.3-5c-.4-.7-.3-1.9-.4-2.8-1-10-5.4-16.5-10.5-22.5-1.2 1.6-2.7 3-4 4.3-.2-.1-.3.1-.6.1.1.2.6.6.7 1 1.2.5 1.6 1.8 2.4 2.6.3.3.6.5.8.8.2.2.3.5.5.8.5.7 1.2 1.4 1.6 2.2.2.5.2.9.3 1.5l.3.6c1.5 3.5 2.7 7.5 2.7 12 .2-.1.4-.2.7-.2 1.7-.3 3.9 0 5.5-.4zm-8.1.1c-.3-1-.3-2.4-.5-3.5-.4-2.8-1.2-5.2-2.3-7.4-.4.1-.6.4-1.2.3-.7-1-1.5-1.9-2.4-2.8-1.3 0-1.6-1.1-2.7-1.3-.2-.3-.3-.9-.6-1.2-.3-.1-.4.1-.8 0-.4-.3-1-.6-1.1-1.4-.1-.2 0-.5 0-.8-.1-.6-.3-1.2-.6-1.6-.7-.9-1.4-.1-2.3.2-.4-.6-.4-1.4-.8-1.9.9-1-.6-1.4-.7-2.1 0-.2.1-.4.1-.6-.1-.4-1.2-1.6-1.5-1.7-.2-.2-.7-.3-1.1-.5-2.3-1-6-2.2-8.8-2.3h-1.1c-.3 0-.7-.2-1-.2.2.2.2.3.2.5.2 1.6-.1 3.9-.1 5.4.4-.1.8-.1 1.3 0 4.7.4 8.7 2.2 11.8 4.4-.2-.4-.7-.7-.8-1.3 0-.2.3-.1.2-.3-.1-.6-1-.9-.6-1.5.5.1.9.5 1.1.9l.9 1.2c.7-.2 1.3.3 1.5.9.1.2 0 .4.1.6.1.3.3.7.4 1 .3.9 1.4 1.3 1.3 2.4.1.2.3.2.5.2.3.5.8 1 1.1 1.5-.2.5.1.9.5 1 .4 0 1.2-1 1.5-.1.2.5-.4.4-.3 1.1.3 0 .7-.3.9 0 0 .6-.6.7-.5 1.1s.7.2 1 .4c.2.2 0 .4.1.6 0 .1.2.2.3.3.4.8-.3 1.6-.2 2.6 0 .2.2.4.2.6.1.8-.3 1.2-.6 1.6 0 1.1-.8 1.5-1.2 2.3-.4.1-.8 0-1 .3-.3.2 0 .7.1 1s-.3.4 0 .4h2c-.5-.7-.2-2.3.1-3 .4-.9.6-2.3 1.6-2.3 0 .8 0 1.7-.3 2.1.5.8.6 2 .6 3.4 1.7-.4 3.7-.5 5.7-.5zm-.5 5.9c.2-1.1.2-2.8.6-3.7-1.9.1-4.1.2-6-.1 0 .5.1.8 0 1.3 0 .8-.4 1.7-.2 2.3.1.6.8.6.7 1.3-.1.6-.7.6-1.2.4-.6 2-1.3 4-2.2 5.7-.5.8-1 1.6-1.6 2.3-.6.8-1 1.7-1.9 2.2.5.3 1 .9 1.4 1.3.2.1.4.3.5.2 0-.5 0-.7.3-.8.8-.3 1.2 1.1 1.5 1.4-.1.8.6 1.2.3 1.9 2.3-2.3 4-4.9 5.4-7.9 1.2-2.4 1.9-4.9 2.4-7.8zM362 36.4c.7-.7 1.4-1.5 2.3-1.9-2.9-3-6.2-5.2-10.2-7-2-.9-4.1-1.6-6.4-2.3-2.6-.7-5.7-1-8.6-1.3h-.1c.3 1.5.2 3.5.1 5.2.1.3.2-.4.5-.2.4.1.4.8.3 1.3 1.4-.3 2.9.2 4.2.4 3.5.7 6.5 1.9 9 3.3.4-.4 1.1-.7 1.7-.6.3 0 .6.2.9.3.2 0 .4-.1.6 0 .5.2.7.7 1 .9.6.2 1.2.7 1.7 1.1.3.4.7 1 .7 1.6l1 1c.3-.6.8-1.2 1.3-1.8zm2.9 53.4c-1.5-1.3-2.9-2.6-4.3-4-.1-.1 0-.3-.1-.4-.5 1.1-1.7 1.7-2.7 2.5-.5.4-.9.8-1.4 1.1-.5.3-1.1.6-1.6.9-.5.4-.9 1-1.1 1.4-.6.9-1.1 1.8-2 2.2-.2.8-1 .8-1.6 1.3-.3.2-.4.4-.6.5-1.7 1-2.6-1.3-4-1.4-.3 0-.8.1-1.2.2-1.6.3-3.4.7-5.1.4.1 2 .1 4.3 0 6.2 1.3-.3 3.4-.4 4.9-.6 9-1.4 15.4-5.3 20.8-10.3zm-4.2-26.4c-1.2.2-2.7 0-3.6-.2.7.4.8 1.1 1 1.8.1.4.8.6 1.1.9.4.5.4 1 .8 1.5.4-1.2.3-2.7.7-4zm-.7-6.6c-.3-1-.6-2-1.1-2.9-.5-.1-.9-.7-1.3-1-.4-.2-1-.3-1-.6-.1-.6.6-1 .6-1.6 0-.5-.8-1.2-1.3-1.8-.6-.8-1-1.4-1.5-1.8-.4.6-.9 1.1-1.5 1.6-1.4 1.5-3 3-4.3 4.5.2.2.3.4.6.5.1-.5.3-1 .5-1.5.5-.5 1.1 0 1.7.1.2 0 .5-.1.8-.1.7 0 1.4.3 2.2.2.4.4.7.8.9 1.4 1 .3-.1 1 .4 1.6.6 0 .7-.6 1.3-.7.3 0 .6.2 1 .3.1.7.9.7 1.1 1.3-.1.3-.3.4-.6.5.2.6-.6 1-.3 1.7 1.2.4 1.3-1 1.8-1.7zm-1.5 27.8c.1-.1.4-.4.2-.4-.2-.1-.3.1-.5 0-.4-.2-.7-.7-.7-1.4-.8-1-1.9-1.8-2.6-2.9-.2.8-1.2 1-.8 2.1.7.4 2.3.8 2.2 1.9-.1.6-1.4 1.2-1.3 2.1 0 .3.3.4.4.8 0 .3-.6.4-.3.8 0-.2.2-.3.3-.5 1-.7 2.3-1.6 3.1-2.5zm-.8-11.2c.8-1.3 1.4-2.9 1.7-4.5-1.1.1-2.5.7-3.5.1-.2.4-.4 1-.9.9-.4-.1-.3-.4-.5-.7 0 .6-.4.7-.6 1.1-.3.5-.3.7-.6 1-.4.3-.9.1-1.3.5-.1.8-1 .8-1.8 1 .2.7 1.2.1 1.6 0 .3-.7.6-1.4 1.7-1.3.5.4.6 1.1.6 2.1-.5.8-.4 2.4-1.2 3 0 .2 0 .4-.1.5-.9.4-1.6.1-2.4-.2-.9-.2-1.7-.5-2.7-.6-.4-.1-1-.3-1.2.2.5.5 1.3.4 2.1.7.7.2 1.2.9 1.8.9.3 0 .7-.2 1.2-.2.9-.1 1.4.2 1.7-.3-.1-.6.3-1 .5-1.4.2-.2.2-.6.5-.6.4.3.4.9.5 1.5 1.2-1.2 2.2-2.3 2.9-3.7zm-5.3-27c.3-.2.7-.2.9-.6-.6-.2-1-.6-1.5-1-3.4-2.5-7.3-4.2-12.6-4.7.3 1.7 0 4.1.2 5.9.1-.1.4-.1.6-.1 3 .4 5.7 1.4 7.7 2.9.6.3 1.1.6 1.3 1.2.4-.2.5-.6.8-.9s.6-.5.9-.8c.6-.7 1.1-1.5 1.7-1.9zm-4.2 24.5c.1-1-.6-1.3-1.1-1.7 0-.2.1-.2.1-.3-.3-.2-.5.1-.7.3.1.3.1.7.3.9.2 0 .3.1.5.1.1.4.4 1.1.9.7zM347 52.5c-.3.1-.7-.1-.9-.3.2-.6.8-.7 1.1-1.2-2.3-1.4-4.9-2.7-8.1-2.9.4 1 .1 2.8.3 4.1.5.1.9.3 1.5.4.2-.4 1-.6 1.4-1 .2-.2.3-.5.6-.5.9 0 .5 1.6.3 2-.4.8-1.7 1.1-2.3 1.6 0 0-.4.3-.1.3.4.2.7-.3 1-.3.9.2 1.2 1.4 2.3.7.3-1.7 2.5-1.4 2.9-2.9zm-1.7 24.1c.7-.5 1.7-1.3 1.3-2.4-.9-.1-1.1.9-1.7.9-.5 0-.4-.5-1-.5 0 .3.4.2.3.7-.4.7-1.1-.1-1.7-.1-.2.1.1.5-.2.5-.2-.1-.3-.3-.6-.5-.2-.2-.6-.2-.8-.3-.2-.1-.2-.3-.5-.3-.4.1-.6.5-1.1.5v.4c-.5.1-.5.7-.9 1-.2 0-.3.1-.5.1-.2.3-.8.3-1 .7.2.4.7.4 1.3.4.4-.8 1.8-.4 2.7-.5.2.2.1.6.3.8.9-.2 1.4.6 2.2.2 0-.2.1-.4.2-.6.3-.6 1.1-.6 1.7-1zm-1.1-3.3c.5-.4 1.6-.4 1.7-1.2-1-.1-1.8.4-1.7 1.2zm-2.1-6.5c.3-.5.6-1.1.7-1.9-.4-.3-.8-.9-.5-1.6-.3-.2-.2-.7-.5-1-.2-.2-.5-.2-.6-.5.2-.4.3-.9.6-1.1-.2-.4-.4-.8-.2-1.4-.2 0-.5 0-.6-.1-.2-.5-.7-.8-1-1.3l-.9-.3c-.1.1-.2.2-.4.2-.3-.2-1.6-1.2-1.5-1.7s.9-.2 1.3-.2c-.3-.4-1.2-.4-1.7-.2.3.5.2 1.3.5 1.7-.6.8-1.5 1.2-2.6 1.5-.2.2-.2.6-.4.8-.6.1-.7.6-1 .9 0 .8-.2 1.6-.3 2.5.3-.2.5-.3.9-.3.1.1.1.4.1.6.2.1.4.1.3.4 0 .4-.5.6-.7 1-.2.4 0 1.3-.7 1.2-.3.1-.1-.4-.4-.3 0 .5.3.7.5 1 .7-.2.6-1.3 1.5-1.3.3-.4 0-.7.1-1.1.2-.7 3-.7 3.3 0 0 .4-.1.6.1.9-.2.4-.3 1-.7 1.3 0 .2.1.2.1.4-.3.3-.2.6-.5.9-.6.5-1.6.1-2.2.6 1.1.8 2.8 1.4 4.7 1.1.6-.6.3-2 1.2-2.3.3-.6.9-.2 1.5-.4zm-5.2 7.6c.4 0 .9.4.9-.3-.1-.3-.3-.2-.5-.5-.1-.2 0-.6-.1-.8.1-.1.2-.1.3-.3-.3-.3-.1-1 0-1.3-1.9.4-3.4-.8-4.7-1.5-.1-.1-.1-.4-.3-.5-.9 1.7-2.5 2.6-3.6 4.1 2 1.5 4.2 2.8 7.2 3.2.2-1-.1-1.8.8-2.1zm-.4 18c.2.1.6.5.7.3-.4-1.6-.1-3.9-.2-5.8-.7.3-1.6.1-2.6 0-4.3-.6-8.3-2.7-10.8-4.6 0 .4.7.6.6 1.2-.1.8-1.2.6-2.1.6-1.1.1-2.1 1-3.2.9-.6-.1-.9-.9-1.6-.8 4.4 4 10 7.3 17.6 8.2.5-.1 1.2-.1 1.6 0zm-4.8-45.2c1.5-.6 3.4-1.4 5.4-1.2-.2-1.8-.1-4.3-.1-6-.5.3-1.7.3-2.4.5-4.8.9-8.1 2.9-11.3 5.4 1.7 1.1 2.8 2.7 4.3 4 .1-.3.4-.4.6-.6 1-.8 2.2-1.5 3.5-2.1zm5.5 5.4c-.3-1.2-.2-2.8-.2-4.3-3.8.5-6.6 1.9-8.6 4.1h.5c.4.5 1.4.4 1.6 1.1 0 .3-.4.2-.3.5.2.1.3.3.6.3.1-.2.2-.6.5-.6.2.2.4.5.6.7.2 0 .4-.2.7-.2.2.1.4.1.5.3.2-.2.6-.2.9-.3.7-.6.5-2.3 1.5-2.3.1.3-.2.6 0 .8.7 0 1.3-.6 1.7-.1zm-.2 45c0-1.3-.1-2.5.2-3.1-1.3.3-2.7 0-4-.3-7.3-1.1-12.8-4.4-17-8.3-1.3 1.6-2.9 2.8-4.2 4.4 5.5 4.7 11.8 8.4 20.3 9.8 1.6.2 3.6.3 5 .7-.4-.8-.3-1.9-.3-3.2zm-9.1-57.3c2.5-1.1 5.7-2.2 9.1-2.2 0-1.9-.3-4 0-5.8-6.5.3-11.5 2.4-15.6 5.1-1.3.8-2.4 2-3.8 2.8.3.4.8.6 1.1 1 .8.6 1.4 1.4 2.1 2 .3.3.9.6.9 1.2 1.8-1.5 3.9-3 6.2-4.1zm8.9-15.7c0-.1.3-.5 0-.4-11.2.7-18.7 5-25 10.6 1 .4 1.7 1.3 2.4 2s1.5 1.5 2.2 2.3c.4-.8 1.2-1.3 1.9-1.8 4.8-3.8 10.7-6.7 18.7-7.1-.4-1.6-.1-3.8-.2-5.6zm-2.4 54c-1.9 0-2.8-.7-4.1-1.4-1.4-.8-2.4-1.5-3.1-2.4-1.2 1.5-2.6 2.7-3.9 4.1.9.4 1.6 1.2 2.5 1.8 1.7 1.2 3.6 2.1 5.8 2.8 1 .3 2.1.7 3.3.8-.3-.1-.6-.3-.9-.3-.6-.9-1.6-1.5-1.7-2.8.4-.4.7-.9.8-1.6.3-.4.8-.8 1.3-1zm-1.8-14.5c.3 0 .5-.6.3-.9-.8 1.1-1-.8-1.4-1.2-.2.1-.1.4-.4.3-.8-.8-1.7.2-1.6 1.3-.2.2-.6.2-.7.6 1.2-.1 2.4-.2 3.4-.6.2 0 .1.4.4.5zm-1.2 3.7c-.2-.1-.5-.2-.7-.3-.1.6-.6.9-.8 1.4.5-.3.8-.9 1.5-1.1zm-2.3 1.9c0-.3-.2-.5-.3-.8-.1-.4.1-1.1-.4-1.3-.4.3.2.7 0 1-.3.1-.4-.4-.9-.4-.2-.2-.4-.4-.5-.7 0-.2.2-.2.1-.4-.3-.3-.5-.2-1-.1.1-.4-.2-.5-.3-.7-.5 0-1.1-.2-1.4-.2.7 1.5 1.2 3 2.1 4.3.3.4.7.8.8 1.3.2-.1.3-.3.4-.5.3-.4 1.3-1 1.4-1.5zm-4.6-16.6c.7-.4.9-1.5 1.8-1.7-1.7-1.2-2.9-2.8-4.4-4.1-2.2 2.6-3.9 5.6-4.9 9.2-.4 1.5-.6 3.4-.9 4.9.6-.3 1.6-.2 2.4-.2 0-.4-.4-1.2-.3-1.9.1-.4.3-.4.4-.6.1-.3.1-.6.1-.7.1-.2.5-.5.7-.9.2-.5.2-.7.5-.9.5-.2 1 .1 1.4-.3.1-.3-.1-.4-.1-.7.3-.5 1-.4 1.4-.6.3-.2.4-.6.6-.8s.5-.6.8-.7c.1.1.3.1.5 0zm-2 10.5c.1-.2-.3-.1-.2-.4.3-.8 0-2-.3-2.6-.6-.3-1.7-.2-2 .3-.1 1 1 1.7.3 2.5-.3.2-.6-.1-1 0-.3.3 0 1.2-.5 1.4-.6.1-1.1 0-1.3.5-.2.5.6 1.1.2 1.8.3.6 1 1 1.3 1.7.1.2.1.3.1.5.1.2.2.3.2.6.1.5-.1.9.1 1.3.1.2.3.3.4.6 0 .1.1.3.1.3.2 1.3-.1 2.2.4 3 .1.2.4.4.5.7.2.5.1 1 .2 1.5-.2.4-.9.4-1 1 .3-.1.3.2.4.3 1.6-1.9 3.2-3.6 5.1-5.2-1.7-2-3.1-4.6-3.8-7.7-.2-.2-.5-.2-.7-.3 0 .3-.1.7-.2 1-.1.4 0 .9-.3 1-.5-.3-1.3-.6-1-1.3.3-.1.4.1.6.1.4-.7-.2-1.5.1-2.2.5 0 .5.7 1 .7.8.1 1.3-.4 1.3-1.1zm-4.8 0c-.6.2-1.4 0-1.8-.1.1.1.2.2.2.4.1 1.3.4 2.4.4 3.8.1-.5.4-.8.7-1.2-.5-.5-.4-.6-.2-1.4s.3-1.3.7-1.5zm2.7-17.8c-1.6-1.2-2.9-2.7-4.2-4.1-.2.7-.9 1.5-1.5 2.2s-1.1 1.4-1.5 2c-2.8 4.2-4.5 9.2-5 15.6 1.9-.1 4.3-.1 5.9-.1-.1-.2-.1-.5-.1-.8 0-1.5.5-3.1.8-4.4 1.1-4.3 3.2-7.7 5.6-10.4zm-6 38.7c.2 0 .3-.1.5-.2-.8-.4-1.3-1.2-1.9-1.9-1-.2-1.8-.8-1.9-1.9-.3.2-.4.4-.8.3-.3 0-1-.6-1.3-1.1-.2-.3-.2-.8-.5-1-.9.2-.7-.7-1.5-.6-.4-.2-.6-.8-.9-1.1-.3 1.5-1.5-.2-1.8-.6-.2 0-.2.2-.5.2-.2-.3-.5-.5-.7-1-.1-.2-.1-.5-.1-.7-.1-.2-.3-.3-.3-.6-.2-.7 0-1.4.1-2.1.3-.2.4-.6.6-1 .3-.1.5-.2.8-.2.3.1.3.3.6.4.2 0 .3-.1.5-.1.2-.2-.1-.3.1-.5.3-.2.7-.3 1.2-.4.3.3.5 1.1.9 1.1-.4-.8-.6-2-.8-3.1-.2-1.2-.3-2.6-.5-3.5.1-.3.1-.7.1-1.1 0-.1 0-.1-.1-.1-.1.1-.3.2-.4.2-1.5.2-4-.1-5.6 0 .4 8.1 2.9 15.1 6.6 20.3.9 1.2 1.8 2.4 2.7 3.7.3.4.9 1.2 1 1.2l.5-.5c.6-.6 1.1-1.1 1.5-1.6.7-1 1.2-1.8 1.9-2.5zm-.4-18.8c.1.1.3.4.3.1-.4-.5-.2-1.8-.2-2.4-.1.1-.2.1-.3.2-1.9 0-3.9.2-5.6-.1 0 .3.3.2.2.6.2 2.8.8 5.2 1.3 7.7.2-.4.2-.9.6-1 .1-1.2.2-3.1 1.2-3.8 1 0 1.3-1.5 2.1-1.4.1-.1.2 0 .4.1zm.9-25.3c-1.4-1.2-2.7-2.6-4-4-.1-.2 0-.4-.2-.4-.8.9-1.5 1.7-2.2 2.6-4.5 6-7.8 12.9-8.4 22.9 2-.1 4.2-.1 6.2 0-.2-2.3.3-4.7.8-6.9.9-3.7 2.3-6.6 4-9.4 1.1-1.8 2.4-3.6 3.8-4.8zm58.5 68.1c.1.3-.2.3-.4.5-1.1 1.3-2.5 2.4-4 3.2-2.3 1.3-4.8 2.2-8.5 2-3.5-.2-6.5-1.5-8.8-3-1.1-.6-2.3-1.5-3.4-2.3s-2.5-1.8-3.9-1.9c-1.2-.2-2.5 0-3.4.2 4.8 2.4 9 5.3 12.6 8.9-.6.8-1.4 1.4-2.2 2.1-3.3-3.3-6.5-6.7-10.8-9.2-.6-.3-1.4-.9-1.9-1-.5 0-1.5.4-2.1.8-1.8 1-3.6 2.4-5 3.6-2.2 1.8-4 3.6-5.6 5.9-.8-.6-1.5-1.3-2.4-1.9 3.5-3.8 7.7-6.8 12.7-9.1-.9-.5-2.4-.6-3.6-.3-2.6.7-4.4 2.6-6.6 4-2.1 1.4-4.4 2.7-7.3 3.3-6.8 1.4-11.9-1.8-15.2-5.3 1.1.7 2.4 1.2 3.8 1.6 1.6.4 3.2.6 5 .5 3.4-.1 6-1.5 8.4-2.6 2.7-1.2 5.2-2.3 8.2-2.8 2.4-.4 5.2-.4 7.6.1.7.2 1.4.6 2.1.6.6 0 1-.4 1.3-.6 1.3-.4 3.2-.5 4.7-.5 3.3 0 6.2.7 8.7 1.7 1.3.5 2.4 1.1 3.6 1.6 2.3 1 5 2.1 8.3 2.1 3.1 0 5.8-.7 8.1-2.2z" /><path d="M358.3 34.1c-.9.3-1.1-.4-1.6-.9-.2-.2-.4-.2-.6-.5 0-.2-.1-.4.1-.5.4-.2.8.2 1.3 0 .7.3.8 1.1.8 1.9zm-11.4-5.7c-.4.6-1.6 1.2-2.5.7-1.3.4-3.9 1-4.4-.6.2-.3.7-.2 1-.1.9-.4 2-1 2.9-1.2 1.3.1 2.5.3 3 1.2zm-21.6 77.1c-1.9.3-3.9.7-5.7 1.2-3.2.8-7.1 1.9-11.4 1.7-3.4-.2-6.3-1.5-8.6-3-2.3-1.6-4.1-3.5-5.6-6 1.2 1.2 2.6 2.3 4.4 3s3.9 1.2 6.1 1.4c2.3.3 4.7.3 7 .5 2.3.3 4.4 1 6.4 1-.7-.6-1.6-.5-2.4-.7-3.9-1.3-5.8-4.5-7.5-8-.7-1.4-1.5-2.9-2.4-4.1.9.4 1.6 1 2.3 1.7 2.2 1.8 4.4 3.8 6.4 5.8 3.1 2.6 6.2 4.7 11 5.5zM308.2 26c.2.1-.2.3-.3.4-1 1-2 2.1-2.9 3.3-1.1 1.4-2 2.8-3 4.2-2 2.8-4.8 4.7-7.2 6.9.7-1.7 1-3.6 1.6-5.2 1.9-5.2 6.5-7.7 11.8-9.6z" /><path d="M306.8 98c1 1.9 2.3 3.6 3.7 4.8-3-.9-6.1-1.1-8.9-1.8-2.9-.6-5.2-1.7-7.4-3.2-4.1-2.9-7.4-6.8-8.8-12.5 2.7 6.2 9.8 7.7 15.3 11.1 1.8 1.1 3.3 2.7 5.2 3.6 0-.3-.5-.6-.8-.8-2.1-1.9-3.8-4.2-4.7-7.5-1-3.6-1-8.1-2.6-11.3.8.7 1.3 1.5 1.9 2.4s1.3 1.7 1.9 2.6c2.3 3.7 3.3 8.6 5.2 12.6zm-3.9-63.1c.1 2.3-.9 4.2-1.9 5.7-1 1.6-2.2 2.9-3.6 4.1s-2.9 2.2-4.2 3.5c-1.3 1.3-2.6 2.6-3.4 4.3-.1-1.2.1-2.3.1-3.5 0-1.1-.2-2.3-.3-3.3-.1-2.4-.1-4.7.5-6.7.5-1.9 1.5-3.2 2.7-4.6 1.1-1.3 2.6-2.3 4.5-2.9-.9.9-1.8 1.9-2.4 3.1-1.2 2.5-1.4 5.9-2.3 8.9-.4 1.5-1.2 2.7-1.3 4.1.2-.3.4-.7.5-1 1.2-2.3 2.9-4 5-5.6 2.4-1.7 5.1-3.2 6.1-6.1z" /><path d="M297.5 88.4c.4 2.2 1.3 3.9 2 5.5-7.5-5.3-16.9-8.8-17.8-20.7v-1.8c.2-.3 0-.8.1-1.2.7 4.5 3.6 7.2 6.2 9.8 1.4 1.4 2.7 2.8 3.8 4.3 1.1 1.5 2 3.2 3.4 4.5-.5-1.2-1.3-2.2-1.7-3.5-.4-1.3-.7-2.9-.7-4.5-.1-4.1 1.8-7.5 1.3-11.7 2.6 5 2.2 13.1 3.4 19.3zm.5-42.9c0 1.1-.3 2.2-.6 3.1-2 6.8-7.7 10.1-9.2 17.5-.5-5.1-3.6-8.5-3.9-13.9-.3-6 2-10.2 4.8-13.6-.8 1.4-1.4 3.5-1.5 5.7 0 2.5.6 5.1.8 7.7.2 2.1 0 4-.2 6-.1.6-.2 1.3 0 1.9.3-.2.2-.7.3-1.2.5-3 1.9-5.1 3.6-7 2-2.1 4.5-3.6 5.9-6.2z" /><path d="M294.8 56c.3 2.3-.1 4.5-.5 6.6-.5 3.5-1.4 6.2-2.3 9.3-.4 1.5-1 3-1.1 4.6-.1 1.4 0 2.8.3 4.3-.4-.2-.5-.7-.7-1-1.6-2.6-3.9-4.5-5.5-7-1.9-2.8-2.9-6.8-3.2-11.3v-1.1c.2-2.6.7-4.8 1.4-6.8.1.3 0 .7-.1 1-.2 2.8.5 4.8 1.3 6.8 1.2 3.1 2.7 5.6 3.5 9.2.4 1.7.5 3.2 1 4.5l.3.5c.3 0-.1-.8-.1-.8-1.2-4.4.4-8.6 2-11.6 1.4-2.2 3.2-4.3 3.7-7.2z" /></g>
</svg>